<svg id="Layer_1" data-name="Layer 1" xmlns="http://www.w3.org/2000/svg" viewBox="0 0 362.33 245.78"><defs><style>.cls-1{fill:#fff;}.cls-2{font-size:17.68px;fill:#df7a97;}.cls-2,.cls-6{font-family:NotoSansKR-Black-KSCpc-EUC-H, Noto Sans KR;}.cls-3{fill:#0b40c4;}.cls-4{fill:none;stroke:#df7a97;stroke-miterlimit:10;stroke-width:3px;}.cls-5{font-size:14.15px;font-family:NotoSansCJKkr-Light-KSCpc-EUC-H, Noto Sans CJK KR;}.cls-6{font-size:21.22px;}.cls-7{font-size:12px;font-family:NotoSansKR-Regular-KSCpc-EUC-H, Noto Sans KR;}.cls-8{letter-spacing:0.18em;}.cls-9{letter-spacing:0.18em;}.cls-10{letter-spacing:0.11em;}.cls-11{letter-spacing:0.09em;}.cls-12{letter-spacing:0.09em;}</style></defs><rect class="cls-1" x="0.35" y="45.29" width="361.63" height="200.49"/><text class="cls-2" transform="translate(156.35 42.25)">지식백과</text><rect class="cls-3" width="362.33" height="47.79"/><text class="cls-2" transform="translate(148.53 30.41)">한입사전</text><polyline class="cls-4" points="26.5 15.89 18.5 23.89 26.5 31.89"/><line class="cls-4" x1="349.26" y1="32.51" x2="343.09" y2="27.44"/><path class="cls-4" d="M344.6,22.89A7.62,7.62,0,1,1,337,15.28,7.56,7.56,0,0,1,344.6,22.89Z"/><text class="cls-5" transform="translate(162.57 136.25)">[新聞]</text><text class="cls-6" transform="translate(161.65 112.52)">신문</text><text class="cls-7" transform="translate(29.36 179.31)">커뮤니케이션의<tspan class="cls-8" x="77.28" y="0"> </tspan><tspan x="82.8" y="0">한</tspan><tspan class="cls-9" x="93.84" y="0"> </tspan><tspan x="99.36" y="0">매체인</tspan><tspan class="cls-8" x="132.48" y="0"> </tspan><tspan x="138.01" y="0">신문지</tspan><tspan class="cls-8" x="171.13" y="0"> </tspan><tspan x="176.65" y="0">또는</tspan><tspan class="cls-8" x="198.73" y="0"> </tspan><tspan x="204.25" y="0">그</tspan><tspan class="cls-9" x="215.29" y="0"> </tspan><tspan x="220.81" y="0">신문지를</tspan><tspan class="cls-8" x="264.97" y="0"> </tspan><tspan x="270.5" y="0">매체로 </tspan><tspan x="0" y="18">사용하는</tspan><tspan class="cls-10" x="44.16" y="18"> </tspan><tspan x="48.83" y="18">언론</tspan><tspan class="cls-10" x="70.91" y="18"> </tspan><tspan x="75.58" y="18">현상.</tspan><tspan class="cls-11" x="101" y="18"> </tspan><tspan x="104.74" y="18">넓은</tspan><tspan class="cls-10" x="126.82" y="18"> </tspan><tspan x="131.49" y="18">의미로는</tspan><tspan class="cls-10" x="175.65" y="18"> </tspan><tspan x="180.32" y="18">신문·방송·잡지·출판</tspan><tspan class="cls-12" x="288.84" y="18"> </tspan><tspan x="292.58" y="18">등 </tspan><tspan x="0" y="36">모든 언론 현상을 지칭하기도 한다.</tspan></text></svg>