<svg id="Layer_1" data-name="Layer 1" xmlns="http://www.w3.org/2000/svg" viewBox="0 0 362.33 245.78"><defs><style>.cls-1{fill:#fff;}.cls-2{font-size:12px;font-family:NotoSansKR-Regular-KSCpc-EUC-H, Noto Sans KR;}.cls-3{letter-spacing:0.09em;}.cls-4{letter-spacing:0.11em;}.cls-5{letter-spacing:0.11em;}.cls-6{letter-spacing:0.09em;}.cls-7{letter-spacing:0.02em;}.cls-8{letter-spacing:0.01em;}.cls-9{letter-spacing:0.02em;}.cls-10{font-size:17.68px;fill:#df7a97;}.cls-10,.cls-14{font-family:NotoSansKR-Black-KSCpc-EUC-H, Noto Sans KR;}.cls-11{fill:#0b40c4;}.cls-12{fill:none;stroke:#df7a97;stroke-miterlimit:10;stroke-width:3px;}.cls-13{font-size:14.15px;font-family:NotoSansCJKkr-Light-KSCpc-EUC-H, Noto Sans CJK KR;}.cls-14{font-size:21.22px;}</style></defs><rect class="cls-1" x="0.35" y="45.29" width="361.63" height="200.49"/><text class="cls-2" transform="translate(29.36 179.31)">신문,<tspan class="cls-3" x="25.42" y="0"> </tspan><tspan x="29.2" y="0">잡지</tspan><tspan class="cls-4" x="51.28" y="0"> </tspan><tspan x="56" y="0">등에서</tspan><tspan class="cls-5" x="89.12" y="0"> </tspan><tspan x="93.85" y="0">시사,</tspan><tspan class="cls-6" x="119.26" y="0"> </tspan><tspan x="123.04" y="0">사회,</tspan><tspan class="cls-3" x="148.46" y="0"> </tspan><tspan x="152.24" y="0">풍속</tspan><tspan class="cls-5" x="174.32" y="0"> </tspan><tspan x="179.04" y="0">등을</tspan><tspan class="cls-4" x="201.12" y="0"> </tspan><tspan x="205.85" y="0">촌평하는</tspan><tspan class="cls-5" x="250.01" y="0"> </tspan><tspan x="254.73" y="0">기사</tspan><tspan class="cls-5" x="276.81" y="0"> </tspan><tspan x="281.54" y="0">또는 </tspan><tspan x="0" y="18">난을</tspan><tspan class="cls-7" x="22.08" y="18"> </tspan><tspan x="25.65" y="18">가리키는</tspan><tspan class="cls-7" x="69.81" y="18"> </tspan><tspan x="73.38" y="18">말이다.</tspan><tspan class="cls-8" x="109.84" y="18"> </tspan><tspan x="112.69" y="18">대개는</tspan><tspan class="cls-7" x="145.81" y="18"> </tspan><tspan x="149.39" y="18">익명으로</tspan><tspan class="cls-7" x="193.55" y="18"> </tspan><tspan x="197.12" y="18">날카로운</tspan><tspan class="cls-7" x="241.28" y="18"> </tspan><tspan x="244.85" y="18">풍자를</tspan><tspan class="cls-9" x="277.97" y="18"> </tspan><tspan x="281.54" y="18">담고 </tspan><tspan x="0" y="36">있는 경우가 많아, 그 시평은 독자에게 큰 영향을 끼치고 있다.</tspan></text><text class="cls-10" transform="translate(156.35 42.25)">지식백과</text><rect class="cls-11" width="362.33" height="47.79"/><text class="cls-10" transform="translate(148.53 30.41)">한입사전</text><polyline class="cls-12" points="26.5 15.89 18.5 23.89 26.5 31.89"/><line class="cls-12" x1="349.26" y1="32.51" x2="343.09" y2="27.44"/><path class="cls-12" d="M344.6,22.89A7.62,7.62,0,1,1,337,15.28,7.56,7.56,0,0,1,344.6,22.89Z"/><text class="cls-13" transform="translate(151.43 136.25)">[Column]</text><text class="cls-14" transform="translate(161.65 112.52)">칼럼</text></svg>