<svg id="Layer_1" data-name="Layer 1" xmlns="http://www.w3.org/2000/svg" viewBox="0 0 362.33 245.78"><defs><style>.cls-1{fill:#fff;}.cls-2{font-size:12px;font-family:NotoSansKR-Regular-KSCpc-EUC-H, Noto Sans KR;}.cls-3{letter-spacing:0.1em;}.cls-4{letter-spacing:0.08em;}.cls-5{letter-spacing:-0.05em;}.cls-6{letter-spacing:-0.04em;}.cls-7{letter-spacing:1.94em;}.cls-8{font-size:17.68px;fill:#df7a97;}.cls-15,.cls-8{font-family:NotoSansKR-Black-KSCpc-EUC-H, Noto Sans KR;}.cls-9{fill:#0b40c4;}.cls-10{fill:none;stroke:#df7a97;stroke-miterlimit:10;stroke-width:3px;}.cls-11{font-size:14.15px;font-family:NotoSansCJKkr-Light-KSCpc-EUC-H, Noto Sans CJK KR;}.cls-12{letter-spacing:-0.2em;}.cls-13{letter-spacing:-0.02em;}.cls-14{letter-spacing:-0.01em;}.cls-15{font-size:21.22px;}</style></defs><rect class="cls-1" x="0.35" y="45.29" width="361.63" height="200.49"/><text class="cls-2" transform="translate(29.36 179.31)">기업에서<tspan class="cls-3" x="44.16" y="0"> </tspan><tspan x="48.69" y="0">개발,</tspan><tspan class="cls-4" x="74.1" y="0"> </tspan><tspan x="77.73" y="0">출시하고자</tspan><tspan class="cls-3" x="132.93" y="0"> </tspan><tspan x="137.46" y="0">하는</tspan><tspan class="cls-3" x="159.54" y="0"> </tspan><tspan x="164.06" y="0">상품</tspan><tspan class="cls-3" x="186.14" y="0"> </tspan><tspan x="190.67" y="0">등에</tspan><tspan class="cls-3" x="212.75" y="0"> </tspan><tspan x="217.28" y="0">관해</tspan><tspan class="cls-3" x="239.36" y="0"> </tspan><tspan x="243.89" y="0">상세히</tspan><tspan class="cls-3" x="277.01" y="0"> </tspan><tspan x="281.54" y="0">설명 </tspan><tspan x="0" y="18">하는</tspan><tspan class="cls-5" x="22.08" y="18"> </tspan><tspan x="24.84" y="18">내용의</tspan><tspan class="cls-5" x="57.96" y="18"> </tspan><tspan x="60.71" y="18">문서를</tspan><tspan class="cls-5" x="93.83" y="18"> </tspan><tspan x="96.59" y="18">말한다.</tspan><tspan class="cls-6" x="133.04" y="18"> </tspan><tspan x="135.25" y="18">설치</tspan><tspan class="cls-5" x="157.33" y="18"> </tspan><tspan x="160.08" y="18">방법에서</tspan><tspan class="cls-5" x="204.25" y="18"> </tspan><tspan x="207" y="18">사용</tspan><tspan class="cls-5" x="229.08" y="18"> </tspan><tspan x="231.84" y="18">방법,</tspan><tspan class="cls-6" x="257.25" y="18"> </tspan><tspan x="259.46" y="18">문제점이 </tspan><tspan x="0" y="36">발견되었을 때 취할 수 있는 처방 등이 기록되어 있다.</tspan><tspan class="cls-7" x="262.06" y="36">	</tspan></text><text class="cls-8" transform="translate(156.35 42.25)">지식백과</text><rect class="cls-9" width="362.33" height="47.79"/><text class="cls-8" transform="translate(148.53 30.41)">한입사전</text><polyline class="cls-10" points="26.5 15.89 18.5 23.89 26.5 31.89"/><line class="cls-10" x1="349.26" y1="32.51" x2="343.09" y2="27.44"/><path class="cls-10" d="M344.6,22.89A7.62,7.62,0,1,1,337,15.28,7.56,7.56,0,0,1,344.6,22.89Z"/><text class="cls-11" transform="translate(126.68 136.25)">[<tspan class="cls-12" x="4.46" y="0">	</tspan><tspan x="4.82" y="0">Documen</tspan><tspan class="cls-13" x="66.91" y="0">t</tspan><tspan class="cls-14" x="71.55" y="0">a</tspan><tspan x="79.11" y="0">tion]</tspan></text><text class="cls-15" transform="translate(151.89 112.52)">설명서</text></svg>