<svg id="Layer_1" data-name="Layer 1" xmlns="http://www.w3.org/2000/svg" viewBox="0 0 209.34 67.4"><defs><style>.cls-1{fill:#ffb000;}</style></defs><rect class="cls-1" width="209.34" height="67.4"/><path d="M170.43,45.36a13.12,13.12,0,0,1-5.1-4.84,13.32,13.32,0,0,1-1.86-7,13.29,13.29,0,0,1,1.86-7,13.05,13.05,0,0,1,5.1-4.84,16.29,16.29,0,0,1,13.46-.54,12.37,12.37,0,0,1,4.64,3.45l-3.9,3.6a8.4,8.4,0,0,0-6.6-3.08,8.83,8.83,0,0,0-4.36,1.07,7.69,7.69,0,0,0-3,3,9.38,9.38,0,0,0,0,8.7,7.72,7.72,0,0,0,3,3A8.82,8.82,0,0,0,178,41.92a8.34,8.34,0,0,0,6.6-3.11l3.9,3.6a12.11,12.11,0,0,1-4.65,3.49,15.46,15.46,0,0,1-6.19,1.2A15.1,15.1,0,0,1,170.43,45.36Z"/><path d="M68,45.49a10.82,10.82,0,0,1-4-4.67,16.84,16.84,0,0,1-1.45-7.29A16.86,16.86,0,0,1,64,26.23a10.82,10.82,0,0,1,4-4.67,11.31,11.31,0,0,1,11.63,0,10.82,10.82,0,0,1,4,4.67,17,17,0,0,1,1.45,7.3,17,17,0,0,1-1.45,7.29,10.82,10.82,0,0,1-4,4.67,11.31,11.31,0,0,1-11.63,0Zm9.58-5.59C78.5,38.53,79,36.4,79,33.53s-.45-5-1.37-6.38a4.44,4.44,0,0,0-7.5,0q-1.36,2.05-1.37,6.38c0,2.87.46,5,1.37,6.37a4.44,4.44,0,0,0,7.5,0Z"/><path d="M99.33,36.71a14.74,14.74,0,0,1-2.23-1.46,13.44,13.44,0,0,0-1.44-1A2.27,2.27,0,0,0,94.55,34a2.06,2.06,0,0,0-1.65.79,3.48,3.48,0,0,0-.67,2.14H88.59a8.28,8.28,0,0,1,1.57-5.31,5.46,5.46,0,0,1,6.38-1.35,19.33,19.33,0,0,1,2.29,1.48,15.22,15.22,0,0,0,1.42,1,2.19,2.19,0,0,0,1.09.3,2,2,0,0,0,1.65-.79,3.8,3.8,0,0,0,.68-2.14h3.67a8.46,8.46,0,0,1-1.61,5.31,5,5,0,0,1-4,1.86A5.22,5.22,0,0,1,99.33,36.71Z"/><path d="M120,20.4V46.65h-6.07V25.27h-5.25V20.4Z"/><path d="M130,45.49a10.77,10.77,0,0,1-4-4.67,17,17,0,0,1-1.44-7.29,17,17,0,0,1,1.44-7.3,10.95,10.95,0,0,1,15.62-4.67,10.9,10.9,0,0,1,4,4.67,17,17,0,0,1,1.44,7.3,17,17,0,0,1-1.44,7.29,10.9,10.9,0,0,1-4,4.67,11.29,11.29,0,0,1-11.62,0Zm9.58-5.59c.91-1.37,1.37-3.5,1.37-6.37s-.46-5-1.37-6.38a4.29,4.29,0,0,0-3.77-2.06,4.24,4.24,0,0,0-3.73,2.06c-.92,1.37-1.37,3.5-1.37,6.38s.45,5,1.37,6.37A4.24,4.24,0,0,0,135.81,42,4.29,4.29,0,0,0,139.58,39.9Z"/><path d="M156.49,23.14a4.58,4.58,0,0,1,0-6.45,4.48,4.48,0,0,1,3.28-1.32,4.59,4.59,0,0,1,3.34,1.32,4.53,4.53,0,0,1,0,6.45,4.62,4.62,0,0,1-3.34,1.31A4.51,4.51,0,0,1,156.49,23.14Zm4.91-1.6a2.29,2.29,0,0,0-1.63-3.92,2.17,2.17,0,0,0-1.59.66,2.21,2.21,0,0,0-.66,1.63,2.26,2.26,0,0,0,.64,1.63,2.15,2.15,0,0,0,1.61.66A2.19,2.19,0,0,0,161.4,21.54Z"/><path d="M51.05,34.42l-6.61,1.77-2.55-1.47V32l2.52-1.45,6.64,1.78a1.33,1.33,0,0,0,.4.05,1.54,1.54,0,0,0,.39-3l-3.63-1,3.35-1.92A1.55,1.55,0,1,0,50,23.73l-3.36,1.93,1-3.64a1.55,1.55,0,0,0-3-.8l-1.77,6.61-2.53,1.45L38,27.89V25l4.86-4.86a1.55,1.55,0,1,0-2.19-2.18L38,20.61V16.73a1.55,1.55,0,0,0-3.09,0v3.86l-2.65-2.65A1.55,1.55,0,0,0,30,20.12L34.86,25v2.95l-2.38,1.37-2.54-1.45-1.77-6.61a1.54,1.54,0,1,0-3,.8l1,3.64-3.36-1.93a1.55,1.55,0,1,0-1.54,2.68l3.35,1.92-3.64,1a1.54,1.54,0,0,0,.4,3,1.37,1.37,0,0,0,.4-.05l6.64-1.78L30.93,32v2.76l-2.55,1.47-6.61-1.77a1.54,1.54,0,0,0-.8,3l3.63,1L21.26,40.3A1.54,1.54,0,0,0,22,43.18a1.44,1.44,0,0,0,.77-.21L26.17,41l-1,3.66a1.55,1.55,0,0,0,1.09,1.89,1.9,1.9,0,0,0,.4.05,1.53,1.53,0,0,0,1.49-1.14L30,38.85l2.53-1.46,2.38,1.37v3L30,46.58a1.55,1.55,0,0,0,2.19,2.19l2.65-2.66V50A1.55,1.55,0,1,0,38,50V46.09l2.67,2.68a1.55,1.55,0,0,0,1.09.45,1.55,1.55,0,0,0,1.1-2.64L38,41.73V38.78l2.4-1.39,2.53,1.46,1.78,6.64a1.53,1.53,0,0,0,1.48,1.14,1.92,1.92,0,0,0,.41-.05,1.55,1.55,0,0,0,1.09-1.89l-1-3.66L50,43a1.44,1.44,0,0,0,.77.21,1.54,1.54,0,0,0,.77-2.88l-3.34-1.93,3.62-1a1.54,1.54,0,1,0-.79-3Zm-12.25.3L36.41,36.1,34,34.72V32l2.39-1.38L38.8,32Z"/></svg>