<svg id="Layer_1" data-name="Layer 1" xmlns="http://www.w3.org/2000/svg" viewBox="0 0 141.31 141.31"><defs><style>.cls-1{fill:#0b40c4;}.cls-2{fill:#fff;}.cls-3{fill:#fff7f7;}.cls-4{fill:#da1a29;}.cls-10,.cls-4,.cls-8,.cls-9{stroke:#000;}.cls-10,.cls-4,.cls-9{stroke-linecap:round;stroke-linejoin:round;}.cls-10,.cls-4{stroke-width:3px;}.cls-5{fill:#ffb000;}.cls-6{fill:#9d7f67;}.cls-7{fill:#d1beaf;}.cls-10,.cls-8,.cls-9{fill:none;}.cls-8{stroke-miterlimit:10;}.cls-8,.cls-9{stroke-width:4px;}</style></defs><rect class="cls-1" width="141.31" height="141.31" rx="70.66"/><path class="cls-2" d="M33.15,28.91l-1.48,1.3-.77-.88,4-3.53.77.88L34.22,28l3.29,3.76-1.08.94Z"/><path class="cls-2" d="M38.24,25.31a2.39,2.39,0,0,1,.68-.71l.74,1-.26.17a1.27,1.27,0,0,0-.55.81,1.32,1.32,0,0,0,.32,1l1.32,1.81-1.11.81-2.79-3.82,1-.78.37.51A1.61,1.61,0,0,1,38.24,25.31Z"/><path class="cls-2" d="M39.39,23.33a.75.75,0,0,1-.5-.33.76.76,0,0,1-.09-.59.83.83,0,0,1,.4-.51.88.88,0,0,1,.63-.16.69.69,0,0,1,.49.32.75.75,0,0,1,.1.6.83.83,0,0,1-.39.52A.86.86,0,0,1,39.39,23.33Zm.41.78L41,23.37l2.55,4-1.15.74Z"/><path class="cls-2" d="M45.91,20.85a2.14,2.14,0,0,1,1.15.36,2.48,2.48,0,0,1,.87,1,2.54,2.54,0,0,1,.33,1.27,2.22,2.22,0,0,1-.35,1.15,2.31,2.31,0,0,1-.92.83,1.82,1.82,0,0,1-1.53.16l1,1.95-1.21.65-3-5.69,1.16-.62.26.49a1.78,1.78,0,0,1,1-1.24A2.38,2.38,0,0,1,45.91,20.85Zm.94,3A1.5,1.5,0,0,0,46,22.16a1.23,1.23,0,0,0-1.53.81,1.54,1.54,0,0,0,.89,1.69,1.23,1.23,0,0,0,1.53-.81Z"/><path class="cls-2" d="M54.8,21.84a1.29,1.29,0,0,1-.39.38,2.44,2.44,0,0,1-.56.28,1.86,1.86,0,0,1-1.37,0,1.66,1.66,0,0,1-.87-1L51,19.67l-.69.25-.36-1,.69-.25-.39-1.08,1.29-.47.39,1.09,1.11-.4.35,1-1.1.4L52.9,21a.63.63,0,0,0,.3.38.56.56,0,0,0,.46,0,.89.89,0,0,0,.47-.35Z"/><path class="cls-2" d="M56.18,21.42a2.31,2.31,0,0,1-1.12-.6,2.55,2.55,0,0,1-.64-2.43,2.29,2.29,0,0,1,.68-1.08,2.85,2.85,0,0,1,1.22-.64,2.78,2.78,0,0,1,1.37,0,2.32,2.32,0,0,1,1.75,1.73,2.43,2.43,0,0,1,0,1.31,2.29,2.29,0,0,1-.67,1.07,2.87,2.87,0,0,1-1.21.64A2.82,2.82,0,0,1,56.18,21.42ZM58,19.73a1.38,1.38,0,0,0,.08-1,1.31,1.31,0,0,0-.57-.84,1.15,1.15,0,0,0-.93-.12,1.17,1.17,0,0,0-.75.56,1.5,1.5,0,0,0,.49,1.85,1.15,1.15,0,0,0,.93.12A1.17,1.17,0,0,0,58,19.73Z"/><path class="cls-2" d="M63.9,20a3.45,3.45,0,0,1-1.14-.4l.37-1.12a3.17,3.17,0,0,0,1,.37,3.48,3.48,0,0,0,1.11.06,1.71,1.71,0,0,0,.87-.27.54.54,0,0,0,.24-.5.43.43,0,0,0-.21-.35,1.3,1.3,0,0,0-.46-.19c-.18,0-.43-.08-.74-.12a9.59,9.59,0,0,1-1.18-.21,1.82,1.82,0,0,1-.82-.46,1.4,1.4,0,0,1-.42-.94,1.72,1.72,0,0,1,.19-1,1.92,1.92,0,0,1,.8-.77,3.45,3.45,0,0,1,1.4-.4,4.51,4.51,0,0,1,1.16,0,3.2,3.2,0,0,1,1,.3l-.33,1.12A3.56,3.56,0,0,0,65,14.78a1.7,1.7,0,0,0-.86.29.59.59,0,0,0-.23.53.51.51,0,0,0,.38.44,5.65,5.65,0,0,0,1,.2,9.59,9.59,0,0,1,1.18.21,1.89,1.89,0,0,1,.82.45,1.38,1.38,0,0,1,.42.94,1.66,1.66,0,0,1-.2,1,1.91,1.91,0,0,1-.81.78,3.62,3.62,0,0,1-1.4.4A5.19,5.19,0,0,1,63.9,20Z"/><path class="cls-2" d="M76.23,15l-1.84,4.69-1.32,0-1-3-1.18,2.9-1.32,0L68,14.8l1.3,0,1,3.22,1.25-3.16,1.16,0,1,3.23L75,15Z"/><path class="cls-2" d="M77.23,15.28l1.36.18L78,20.15,76.61,20Zm.18-.86a.74.74,0,0,1-.16-.57.69.69,0,0,1,.31-.51.86.86,0,0,1,.64-.14.88.88,0,0,1,.58.29A.7.7,0,0,1,79,14a.76.76,0,0,1-.32.54,1,1,0,0,1-1.22-.16Z"/><path class="cls-2" d="M82.17,20.68a1.26,1.26,0,0,1-.53.13,2.64,2.64,0,0,1-.62,0,1.83,1.83,0,0,1-1.2-.67,1.63,1.63,0,0,1-.21-1.33L80,16.85l-.71-.14.2-1,.71.15.23-1.14,1.34.27-.22,1.13,1.16.22-.21,1-1.15-.23L81,19a.66.66,0,0,0,.06.49.6.6,0,0,0,.4.24.85.85,0,0,0,.57-.07Z"/><path class="cls-2" d="M86.81,21.11l-.29,1L82.46,21l.23-.79,3.09-2.09-2.26-.63.29-1,3.92,1.11-.22.79-3.09,2.09Z"/><path class="cls-2" d="M92.19,22.18l-3.33-1.3a1.1,1.1,0,0,0,.17.81,1.5,1.5,0,0,0,.74.57,1.79,1.79,0,0,0,.65.13,1.58,1.58,0,0,0,.63-.13l.39,1a2.48,2.48,0,0,1-2.1,0,3.1,3.1,0,0,1-1.2-.81,2.24,2.24,0,0,1-.57-1.15,2.45,2.45,0,0,1,.15-1.3,2.37,2.37,0,0,1,.76-1,2.25,2.25,0,0,1,1.16-.48,2.5,2.5,0,0,1,1.31.18,2.57,2.57,0,0,1,1.07.74,2.26,2.26,0,0,1,.51,1.12,2.59,2.59,0,0,1-.18,1.32A3.23,3.23,0,0,1,92.19,22.18ZM89.76,19.6a1.07,1.07,0,0,0-.62.53l2.17.85a1.17,1.17,0,0,0-.1-.81,1.15,1.15,0,0,0-.63-.53A1.11,1.11,0,0,0,89.76,19.6Z"/><path class="cls-2" d="M96,21.15a2.49,2.49,0,0,1,.94.27l-.56,1.13-.27-.15a1.33,1.33,0,0,0-1-.12,1.4,1.4,0,0,0-.74.74l-1,2-1.23-.61,2.11-4.24,1.17.59-.27.56A1.43,1.43,0,0,1,96,21.15Z"/><path class="cls-2" d="M98.72,20.44l1.19.69-3.27,5.65-1.18-.69Z"/><path class="cls-2" d="M103,25.85a2,2,0,0,1-.41,1.63l-1.52,2.23L100.05,29l.33-.49a1.53,1.53,0,0,1-1.56-.26,2.34,2.34,0,0,1-.68-.69,1.35,1.35,0,0,1-.21-.76,1.25,1.25,0,0,1,.24-.73,1.22,1.22,0,0,1,1-.58,2.52,2.52,0,0,1,1.48.55l.9.62a.88.88,0,0,0,.17-.73,1.24,1.24,0,0,0-.54-.66,2.49,2.49,0,0,0-.68-.32,1.94,1.94,0,0,0-.7-.08l.14-1.07a2.84,2.84,0,0,1,1,.17,4.07,4.07,0,0,1,1,.5A2.51,2.51,0,0,1,103,25.85Zm-2.81,2a.85.85,0,0,0,.59-.17l.27-.4-.77-.53c-.47-.32-.81-.33-1,0a.51.51,0,0,0-.07.46,1,1,0,0,0,.38.45A1.21,1.21,0,0,0,100.23,27.88Z"/><path class="cls-2" d="M108,29.91a2.07,2.07,0,0,1-.6,1.54l-1.76,2.06-1-.9,1.62-1.89a1.29,1.29,0,0,0,.36-.8,1,1,0,0,0-.36-.68,1.13,1.13,0,0,0-.84-.29,1.36,1.36,0,0,0-.86.53L103,31.25l-1-.89,3.08-3.59,1,.85-.36.42a1.94,1.94,0,0,1,.82.09,2.39,2.39,0,0,1,.78.45A1.93,1.93,0,0,1,108,29.91Z"/><path class="cls-2" d="M114.52,33.39l-4.79,4.43-.88-1,.4-.37a1.82,1.82,0,0,1-1.46-.67,2.51,2.51,0,0,1-.6-1.09,2.14,2.14,0,0,1,0-1.2,2.56,2.56,0,0,1,.73-1.1,2.63,2.63,0,0,1,1.15-.65,2.17,2.17,0,0,1,1.21,0,2.57,2.57,0,0,1,1,.68,1.81,1.81,0,0,1,.54,1.43l1.68-1.56Zm-4.9,2.23a1.32,1.32,0,0,0,.94-.39,1.35,1.35,0,0,0,.47-.9,1.19,1.19,0,0,0-.33-.88,1.16,1.16,0,0,0-.85-.4,1.34,1.34,0,0,0-.93.4,1.29,1.29,0,0,0-.47.9,1.15,1.15,0,0,0,.33.88A1.13,1.13,0,0,0,109.62,35.62Z"/><path class="cls-2" d="M121.54,63.81a2.1,2.1,0,0,1,.58-.92l1,.69a1.41,1.41,0,0,0-.55,1.2c0,.58.42.83,1.1.77l2.91-.3-.22-2.15,1.14-.12.36,3.56-4,.41a2.38,2.38,0,0,1-1.75-.39,2.25,2.25,0,0,1-.73-1.59A3,3,0,0,1,121.54,63.81Z"/><path class="cls-2" d="M126.57,73.13l-4.73,0v-1.3h.56a1.78,1.78,0,0,1-.47-.65,2.24,2.24,0,0,1,.38-2.29,2.12,2.12,0,0,1,1.59-.54h2.67v1.38h-2.47c-.76,0-1.14.32-1.15,1a1.06,1.06,0,0,0,.32.8,1.36,1.36,0,0,0,1,.3h2.34Z"/><path class="cls-2" d="M125.51,79a2.07,2.07,0,0,1-1.61.35L121.21,79l.16-1.36,2.48.29a1.2,1.2,0,0,0,.86-.14.93.93,0,0,0,.36-.67,1.07,1.07,0,0,0-.22-.86,1.33,1.33,0,0,0-.91-.42l-2.33-.28.17-1.36,4.69.56-.15,1.3-.55-.07a1.89,1.89,0,0,1,.38.73,2.66,2.66,0,0,1,.06.9A1.94,1.94,0,0,1,125.51,79Z"/><path class="cls-2" d="M121.87,85.07l.81-3.48a1.07,1.07,0,0,0-.78.29,1.46,1.46,0,0,0-.45.81,1.68,1.68,0,0,0,0,.66,1.49,1.49,0,0,0,.21.6l-.93.53a2.41,2.41,0,0,1-.3-2.07A3.07,3.07,0,0,1,121,81.1a2.31,2.31,0,0,1,1.06-.73,2.52,2.52,0,0,1,1.31,0,2.43,2.43,0,0,1,1.14.61,2.3,2.3,0,0,1,.64,1.08,2.6,2.6,0,0,1,0,1.33,2.56,2.56,0,0,1-.58,1.15,2.23,2.23,0,0,1-1,.67,2.53,2.53,0,0,1-1.34,0Zm2.21-2.77a1.14,1.14,0,0,0-.61-.55L122.93,84a1.11,1.11,0,0,0,.79-.21,1.2,1.2,0,0,0,.44-.69A1.19,1.19,0,0,0,124.08,82.3Z"/><path class="cls-2" d="M108,112.53l1.48-1.29.77.87-4,3.53-.77-.88,1.49-1.29-3.29-3.76,1.07-.94Z"/><path class="cls-2" d="M102.87,116.12a2.48,2.48,0,0,1-.67.71l-.75-1,.26-.17a1.24,1.24,0,0,0,.55-.81,1.34,1.34,0,0,0-.31-1l-1.32-1.8,1.11-.81,2.79,3.82-1.06.77-.37-.5A1.51,1.51,0,0,1,102.87,116.12Z"/><path class="cls-2" d="M101.31,117.32l-1.15.74-2.56-4,1.16-.74Zm.42.78a.67.67,0,0,1,.49.33.7.7,0,0,1,.1.58,1,1,0,0,1-1,.68.7.7,0,0,1-.48-.32.77.77,0,0,1-.11-.61.92.92,0,0,1,.4-.52A.88.88,0,0,1,101.73,118.1Z"/><path class="cls-2" d="M95.18,120.58a2.28,2.28,0,0,1-1.15-.35,2.64,2.64,0,0,1-.87-1,2.56,2.56,0,0,1-.32-1.28,2.13,2.13,0,0,1,.35-1.15,2.47,2.47,0,0,1,.92-.83,1.84,1.84,0,0,1,1.52-.16l-1-1.95,1.21-.64,3,5.69-1.16.61-.25-.48a1.81,1.81,0,0,1-1,1.24A2.42,2.42,0,0,1,95.18,120.58Zm-.94-3a1.35,1.35,0,0,0,.15,1,1.33,1.33,0,0,0,.75.68,1.1,1.1,0,0,0,.93-.09,1.13,1.13,0,0,0,.6-.72,1.3,1.3,0,0,0-.15-1,1.33,1.33,0,0,0-.75-.68,1.1,1.1,0,0,0-.93.09A1.13,1.13,0,0,0,94.24,117.59Z"/><path class="cls-2" d="M86.31,119.59a1.46,1.46,0,0,1,.4-.38,2,2,0,0,1,.55-.28,1.84,1.84,0,0,1,1.38,0,1.65,1.65,0,0,1,.86,1l.66,1.83.69-.24.35,1-.68.25.39,1.08-1.29.46-.39-1.08-1.11.4-.36-1,1.11-.4-.65-1.82a.7.7,0,0,0-.3-.38.59.59,0,0,0-.47,0,.87.87,0,0,0-.46.35Z"/><path class="cls-2" d="M84.93,120a2.31,2.31,0,0,1,1.12.6,2.41,2.41,0,0,1,.65,1.13,2.49,2.49,0,0,1,0,1.3,2.24,2.24,0,0,1-.68,1.07,2.73,2.73,0,0,1-1.21.65,2.9,2.9,0,0,1-1.37,0,2.41,2.41,0,0,1-1.12-.61,2.35,2.35,0,0,1-.64-1.13,2.39,2.39,0,0,1,0-1.3,2.31,2.31,0,0,1,.68-1.07,2.71,2.71,0,0,1,1.21-.64A2.78,2.78,0,0,1,84.93,120ZM83.1,121.7a1.33,1.33,0,0,0-.09,1,1.45,1.45,0,0,0,.57.84,1.24,1.24,0,0,0,1.68-.45,1.49,1.49,0,0,0-.48-1.84,1.21,1.21,0,0,0-.94-.13A1.13,1.13,0,0,0,83.1,121.7Z"/><path class="cls-2" d="M77.21,121.48a3.3,3.3,0,0,1,1.15.4L78,123a3.17,3.17,0,0,0-1-.37,3.73,3.73,0,0,0-1.1-.07,1.9,1.9,0,0,0-.88.27.55.55,0,0,0-.24.51.5.5,0,0,0,.21.35,1.47,1.47,0,0,0,.46.18l.75.12a9.16,9.16,0,0,1,1.17.22,1.84,1.84,0,0,1,.82.45,1.48,1.48,0,0,1,.43,1,1.76,1.76,0,0,1-.19,1,2,2,0,0,1-.8.78,3.67,3.67,0,0,1-1.4.4,5,5,0,0,1-1.16,0,3.81,3.81,0,0,1-1-.3l.33-1.12a3.4,3.4,0,0,0,1.74.3,1.55,1.55,0,0,0,.86-.28.57.57,0,0,0,.23-.54.48.48,0,0,0-.37-.43,5,5,0,0,0-1-.2,9.56,9.56,0,0,1-1.19-.22,1.84,1.84,0,0,1-.81-.44,1.4,1.4,0,0,1-.42-.94,1.7,1.7,0,0,1,.19-1,2,2,0,0,1,.81-.77,3.45,3.45,0,0,1,1.4-.4A4.81,4.81,0,0,1,77.21,121.48Z"/><path class="cls-2" d="M64.88,126.4l1.84-4.68,1.32,0,1,3,1.18-2.9,1.31,0,1.58,4.78-1.29,0-1-3.23-1.25,3.17-1.16,0-1-3.23-1.23,3.17Z"/><path class="cls-2" d="M63.7,127a.68.68,0,0,1,.16.57.72.72,0,0,1-.3.51.91.91,0,0,1-.64.14.9.9,0,0,1-.58-.29.68.68,0,0,1-.17-.56.75.75,0,0,1,.31-.53.87.87,0,0,1,.64-.14A.84.84,0,0,1,63.7,127Zm.19-.86L62.53,126l.62-4.68,1.36.18Z"/><path class="cls-2" d="M58.94,120.74a1.42,1.42,0,0,1,.53-.12,2.7,2.7,0,0,1,.63,0,1.83,1.83,0,0,1,1.19.68,1.66,1.66,0,0,1,.22,1.33l-.38,1.91.72.14-.2,1-.72-.14-.22,1.13-1.35-.26.22-1.13-1.15-.23.2-1,1.16.22.37-1.89a.69.69,0,0,0-.07-.48.53.53,0,0,0-.39-.24.93.93,0,0,0-.58.06Z"/><path class="cls-2" d="M54.31,120.32l.28-1,4.06,1.15-.22.8-3.1,2.08,2.26.64-.28,1-3.93-1.11.23-.8L56.7,121Z"/><path class="cls-2" d="M48.92,119.24l3.33,1.31a1.12,1.12,0,0,0-.17-.82,1.54,1.54,0,0,0-.74-.56,1.81,1.81,0,0,0-.65-.14,1.77,1.77,0,0,0-.62.13l-.39-1a2.45,2.45,0,0,1,2.09,0A3,3,0,0,1,53,119a2.28,2.28,0,0,1,.57,1.15,2.4,2.4,0,0,1-.15,1.29,2.48,2.48,0,0,1-.77,1,2.4,2.4,0,0,1-1.16.48,2.73,2.73,0,0,1-1.31-.18A2.63,2.63,0,0,1,49.1,122a2.1,2.1,0,0,1-.51-1.12,2.46,2.46,0,0,1,.17-1.32Zm2.44,2.59a1.14,1.14,0,0,0,.62-.53l-2.17-.85a1.13,1.13,0,0,0,.1.81,1.17,1.17,0,0,0,.62.53A1.19,1.19,0,0,0,51.36,121.83Z"/><path class="cls-2" d="M45.09,120.28a2.54,2.54,0,0,1-.94-.27l.57-1.14L45,119a1.22,1.22,0,0,0,1,.12,1.31,1.31,0,0,0,.74-.73l1-2,1.22.61-2.11,4.23-1.17-.58.28-.56A1.55,1.55,0,0,1,45.09,120.28Z"/><path class="cls-2" d="M42.4,121l-1.19-.68,3.26-5.65,1.19.68Z"/><path class="cls-2" d="M38.08,115.58a2,2,0,0,1,.4-1.64L40,111.71l1.06.73-.33.48a1.51,1.51,0,0,1,1.56.27,2.1,2.1,0,0,1,.68.68,1.34,1.34,0,0,1,0,1.5,1.27,1.27,0,0,1-1,.58,2.57,2.57,0,0,1-1.48-.56l-.9-.61a.86.86,0,0,0-.16.72,1.18,1.18,0,0,0,.54.66,2.26,2.26,0,0,0,.68.33,2.1,2.1,0,0,0,.69.08l-.13,1.07a2.92,2.92,0,0,1-1-.18,4.07,4.07,0,0,1-1-.5A2.43,2.43,0,0,1,38.08,115.58Zm2.8-2a.93.93,0,0,0-.59.18l-.27.4.78.53c.46.32.8.32,1,0a.48.48,0,0,0,.06-.46.84.84,0,0,0-.38-.45A1.16,1.16,0,0,0,40.88,113.54Z"/><path class="cls-2" d="M33.09,111.52A2.12,2.12,0,0,1,33.7,110l1.76-2.06,1,.89-1.62,1.9a1.19,1.19,0,0,0-.36.8.86.86,0,0,0,.36.67,1.06,1.06,0,0,0,.84.29,1.28,1.28,0,0,0,.85-.52l1.52-1.78,1,.89-3.07,3.6-1-.85.36-.42a1.9,1.9,0,0,1-.81-.09,2.23,2.23,0,0,1-.78-.46A2,2,0,0,1,33.09,111.52Z"/><path class="cls-2" d="M26.59,108l4.79-4.43.89,1-.4.37a1.79,1.79,0,0,1,1.45.66,2.35,2.35,0,0,1,.6,1.1,2.05,2.05,0,0,1-.05,1.2A2.85,2.85,0,0,1,32,109.64a2.13,2.13,0,0,1-1.2,0,2.44,2.44,0,0,1-1-.69,1.83,1.83,0,0,1-.55-1.42L27.52,109Zm4.9-2.24a1.34,1.34,0,0,0-.93.4,1.29,1.29,0,0,0-.47.9,1.14,1.14,0,0,0,.32.87,1.16,1.16,0,0,0,.85.4,1.28,1.28,0,0,0,.94-.4,1.33,1.33,0,0,0,.47-.89,1.25,1.25,0,0,0-.33-.89A1.19,1.19,0,0,0,31.49,105.8Z"/><path class="cls-2" d="M20,77.41a2.18,2.18,0,0,1-.57.92l-1-.69a1.44,1.44,0,0,0,.56-1.2c-.06-.58-.43-.83-1.1-.76L14.89,76l.22,2.15L14,78.24l-.36-3.56,4-.41a2.36,2.36,0,0,1,1.75.39,2.22,2.22,0,0,1,.73,1.59A2.63,2.63,0,0,1,20,77.41Z"/><path class="cls-2" d="M14.92,68.09l4.73,0v1.3h-.56a1.9,1.9,0,0,1,.47.65,2.18,2.18,0,0,1,.16.82,2.07,2.07,0,0,1-.54,1.47,2.13,2.13,0,0,1-1.6.54H14.91V71.51h2.47c.77,0,1.15-.32,1.15-1a1.06,1.06,0,0,0-.32-.8,1.34,1.34,0,0,0-.95-.3H14.92Z"/><path class="cls-2" d="M16,62.24a2.08,2.08,0,0,1,1.62-.35l2.69.32-.16,1.36-2.48-.29a1.23,1.23,0,0,0-.87.14.93.93,0,0,0-.36.68,1.14,1.14,0,0,0,.22.86,1.39,1.39,0,0,0,.92.41l2.32.28L19.72,67,15,66.45l.15-1.3.55.07a1.87,1.87,0,0,1-.37-.73,2.24,2.24,0,0,1-.06-.9A2,2,0,0,1,16,62.24Z"/><path class="cls-2" d="M19.63,56.15l-.82,3.48a1.07,1.07,0,0,0,.78-.29,1.46,1.46,0,0,0,.45-.81,1.91,1.91,0,0,0,.05-.66,1.62,1.62,0,0,0-.22-.6l.94-.53a2.5,2.5,0,0,1,.3,2.08,3.1,3.1,0,0,1-.63,1.3,2.31,2.31,0,0,1-1.06.73,2.48,2.48,0,0,1-1.3,0A2.51,2.51,0,0,1,17,60.28a2.38,2.38,0,0,1-.64-1.08,2.72,2.72,0,0,1,0-1.33,2.67,2.67,0,0,1,.58-1.15,2.26,2.26,0,0,1,1-.67,2.49,2.49,0,0,1,1.33,0Zm-2.22,2.77a1.16,1.16,0,0,0,.62.55l.53-2.27a1.2,1.2,0,0,0-.79.21,1.3,1.3,0,0,0-.36,1.51Z"/><path class="cls-3" d="M115.55,101.51c3.22,0,3.22-5,0-5s-3.22,5,0,5Z"/><path class="cls-3" d="M120.7,50.81c3.22,0,3.22-5,0-5s-3.22,5,0,5Z"/><path class="cls-3" d="M26.44,42.89c3.22,0,3.22-5,0-5s-3.22,5,0,5Z"/><path class="cls-3" d="M21.29,94.78c3.22,0,3.22-5,0-5s-3.22,5,0,5Z"/><path class="cls-4" d="M93.09,65.3h0C83.68,73,72.31,77,62.66,75.93l-.24,0-2.6-.13c-9.17-.47-19.65,3.35-28.47,10.39L30.27,87l-.94-41.64,1.08-.87c8.81-7,19.3-10.86,28.47-10.38l2.6.13.24,0c9.64,1,21-3,30.43-10.62h0Z"/><polygon class="cls-3" points="62.96 60.55 58.26 62.17 57.95 48.28 62.64 46.65 62.96 60.55"/><polygon class="cls-3" points="52.53 59.22 52.43 55.12 68.38 49.61 68.47 53.7 52.53 59.22"/><path class="cls-5" d="M91.92,72.7s7.15,5,9.12,7.42,5.74,6.77,5.74,6.77l-.47-2.72L112,71.59,96.43,61l-9.87-6.59-2.26.47L75,64.23l.84,1.32,8.28,2.73Z"/><polygon class="cls-6" points="79.17 69.91 82.3 74.3 81.99 79.32 84.34 83.7 87.94 84.02 88.88 87.78 92.8 90.29 98.53 88.88 100.48 91.86 102.36 93.11 101.11 102.52 92.8 112.86 83.56 116 73.99 116.15 66.63 113.02 58.32 105.18 55.34 94.68 57.22 83.55 61.92 77.28 68.04 72.26 75.25 69.44 79.17 69.91"/><path class="cls-7" d="M76.65,80.45a1.33,1.33,0,0,0-.62-.16,1.24,1.24,0,0,0-.61,2.31,1.18,1.18,0,0,0,.61.16,1.24,1.24,0,0,0,.62-2.31Z"/><path class="cls-7" d="M67.56,88.76a1.26,1.26,0,0,0-.62.17,1.24,1.24,0,0,0-.45,1.68,1.22,1.22,0,0,0,1.07.62h0a1.22,1.22,0,0,0,.62-.16,1.25,1.25,0,0,0,.58-.75,1.23,1.23,0,0,0-1.2-1.56Z"/><path class="cls-7" d="M70.66,100.33a1.24,1.24,0,1,0,1.24,1.24A1.23,1.23,0,0,0,70.66,100.33Z"/><path class="cls-7" d="M82.85,103.6a1.2,1.2,0,0,0-.62-.17,1.24,1.24,0,1,0,1.2.92A1.22,1.22,0,0,0,82.85,103.6Z"/><path class="cls-7" d="M90.7,95a1.22,1.22,0,0,0-.61.17,1.18,1.18,0,0,0-.58.75,1.22,1.22,0,0,0,1.19,1.55,1.22,1.22,0,0,0,.62-.16,1.25,1.25,0,0,0,.58-.75,1.28,1.28,0,0,0-.12-.94A1.25,1.25,0,0,0,90.7,95Z"/><path d="M103.69,92.87v-.09a1.18,1.18,0,0,0-1.12-1.17,4.68,4.68,0,0,1-4-2.73,1.14,1.14,0,0,0-.76-.64,1.17,1.17,0,0,0-1,.17,4.7,4.7,0,0,1-7.41-4.28,1.18,1.18,0,0,0-1.28-1.28,3.1,3.1,0,0,1-.43,0,4.71,4.71,0,0,1-3.85-7.43,1.17,1.17,0,0,0,.17-1,1.14,1.14,0,0,0-.64-.76,4.7,4.7,0,0,1-2.73-4,1.18,1.18,0,0,0-1.16-1.12h-.32A24.56,24.56,0,1,0,103.69,93.1ZM79.14,115.3a22.2,22.2,0,0,1-.73-44.39,7.11,7.11,0,0,0,2.84,4.29A7.07,7.07,0,0,0,87,85.2,7.08,7.08,0,0,0,97,91a7,7,0,0,0,4.29,2.84A22.23,22.23,0,0,1,79.14,115.3Z"/><path d="M80.83,98.11H71.31a2.25,2.25,0,0,1-2.13-2.36L69,88.85a2.37,2.37,0,0,1,2.37-2.36H82a2.36,2.36,0,0,1,2.36,2.36L83,95.75A2.25,2.25,0,0,1,80.83,98.11Z"/><path d="M54,98.11h9.53a2.25,2.25,0,0,0,2.12-2.36l.19-6.9a2.36,2.36,0,0,0-2.36-2.36H52.82a2.37,2.37,0,0,0-2.37,2.36l1.38,6.9A2.25,2.25,0,0,0,54,98.11Z"/><path class="cls-8" d="M61.34,92.26a11.79,11.79,0,0,1,5.94-2.14c3,0,7,3.41,7,3.41"/><polyline class="cls-9" points="74.49 90.88 94.48 90.88 96.83 97.39"/><path class="cls-10" d="M111.61,95.47S106.3,80.74,89,70.8s-29.31-6.69-29.31-6.69"/><polyline class="cls-10" points="74.42 64.65 85.64 53.79 111.98 71.59 106.03 85.84"/></svg>