<svg id="Layer_1" data-name="Layer 1" xmlns="http://www.w3.org/2000/svg" viewBox="0 0 216.61 216.61"><defs><style>.cls-1{fill:#ececec;}.cls-2{fill:#1d1d1b;}.cls-3{fill:none;stroke:#1d1d1b;stroke-miterlimit:10;stroke-width:3px;}</style></defs><rect class="cls-1" width="216.61" height="216.61"/><path class="cls-2" d="M192.85,121.51c0,29-139.57,60.91-150.14,60.91-5.93,0-12.65-1.36-12.65-6.82,0-1.83,2.11-4.47,5.8-7.65h0l-9.8-17.4a4.47,4.47,0,0,1,2.24-6.35l1.68-.68a11.18,11.18,0,0,1,9.39.5l17.79,9.42c6.92-4.11,14.78-8.41,23.06-12.64L45.56,118.31a4.47,4.47,0,0,1,0-7.54L48.45,109a20.11,20.11,0,0,1,15.84-2.42L122,121.78c18-7.14,34.24-12,43.86-12,2.57,0,5.14.07,7.62.25L156,117.88l-.42,5.85,26.88-12.35C188.93,112.91,192.85,115.78,192.85,121.51Zm-70.15,50,21.51,24.44a4.49,4.49,0,0,0,5.24,1.1l2.88-1.34A13.42,13.42,0,0,0,160,182l-2.7-23a2.24,2.24,0,0,0-3-1.85L123.64,167.9A2.24,2.24,0,0,0,122.7,171.49Z"/><path class="cls-2" d="M44,55.33a9.38,9.38,0,0,1-3.11-1.46l1.38-3a9.53,9.53,0,0,0,2.67,1.33,10.2,10.2,0,0,0,3.1.5,4.86,4.86,0,0,0,2.55-.52,1.54,1.54,0,0,0,.83-1.36,1.34,1.34,0,0,0-.49-1,3.78,3.78,0,0,0-1.25-.66c-.51-.16-1.2-.35-2.06-.55a28.24,28.24,0,0,1-3.28-1,5.36,5.36,0,0,1-2.19-1.52,4.17,4.17,0,0,1-.91-2.8,4.9,4.9,0,0,1,.83-2.77,5.58,5.58,0,0,1,2.48-2,10.26,10.26,0,0,1,4.07-.72,13.25,13.25,0,0,1,3.27.4,9.46,9.46,0,0,1,2.8,1.15l-1.25,3.07a9.69,9.69,0,0,0-4.85-1.37,4.51,4.51,0,0,0-2.51.55,1.67,1.67,0,0,0-.81,1.45,1.4,1.4,0,0,0,.94,1.33,14.23,14.23,0,0,0,2.86.87,26.69,26.69,0,0,1,3.27,1,5.31,5.31,0,0,1,2.19,1.5,4,4,0,0,1,.91,2.77,4.85,4.85,0,0,1-.83,2.74,5.65,5.65,0,0,1-2.52,2A10.08,10.08,0,0,1,48,55.9,14.2,14.2,0,0,1,44,55.33Z"/><path class="cls-2" d="M79,42.15,74.17,55.6H70.42l-3-8.35L64.27,55.6H60.52L55.67,42.15h3.67l3.18,9.1,3.3-9.1h3.3l3.2,9.1,3.27-9.1Z"/><path class="cls-2" d="M80.82,39.65a2,2,0,0,1-.68-1.55,2,2,0,0,1,.68-1.55,2.46,2.46,0,0,1,1.75-.63,2.55,2.55,0,0,1,1.75.6A1.92,1.92,0,0,1,85,38a2.11,2.11,0,0,1-.67,1.61,2.44,2.44,0,0,1-1.75.64A2.49,2.49,0,0,1,80.82,39.65Zm-.2,2.5h3.9V55.6h-3.9Z"/><path class="cls-2" d="M89.14,55.38a8.76,8.76,0,0,1-2.55-1l1.3-2.8a8.27,8.27,0,0,0,2.18.93,8.81,8.81,0,0,0,2.5.37c1.65,0,2.47-.41,2.47-1.23a.85.85,0,0,0-.67-.82,9.9,9.9,0,0,0-2.08-.43,21.41,21.41,0,0,1-2.72-.57,4.29,4.29,0,0,1-1.87-1.15,3.3,3.3,0,0,1-.78-2.35A3.71,3.71,0,0,1,87.65,44,4.8,4.8,0,0,1,89.8,42.5,9.17,9.17,0,0,1,93.14,42a13,13,0,0,1,2.84.31,8,8,0,0,1,2.34.86L97,45.9a7.76,7.76,0,0,0-3.88-1,3.83,3.83,0,0,0-1.87.35,1,1,0,0,0-.63.9.89.89,0,0,0,.68.87,11.45,11.45,0,0,0,2.15.48,24.3,24.3,0,0,1,2.7.58A4,4,0,0,1,98,49.22a3.22,3.22,0,0,1,.78,2.3A3.55,3.55,0,0,1,98,53.75a4.8,4.8,0,0,1-2.19,1.51,9.72,9.72,0,0,1-3.41.54A12.88,12.88,0,0,1,89.14,55.38Z"/><path class="cls-2" d="M102.17,55.38a8.53,8.53,0,0,1-2.55-1l1.3-2.8a8.2,8.2,0,0,0,2.17.93,8.86,8.86,0,0,0,2.5.37c1.65,0,2.48-.41,2.48-1.23a.86.86,0,0,0-.68-.82,9.92,9.92,0,0,0-2.07-.43,22,22,0,0,1-2.73-.57,4.26,4.26,0,0,1-1.86-1.15,3.26,3.26,0,0,1-.79-2.35,3.72,3.72,0,0,1,.74-2.27,4.75,4.75,0,0,1,2.15-1.53,9.1,9.1,0,0,1,3.34-.55,12.91,12.91,0,0,1,2.83.31,7.75,7.75,0,0,1,2.34.86L110,45.9a7.7,7.7,0,0,0-3.87-1,3.88,3.88,0,0,0-1.88.35,1,1,0,0,0-.62.9.88.88,0,0,0,.67.87,11.64,11.64,0,0,0,2.15.48,24.3,24.3,0,0,1,2.7.58A4.11,4.11,0,0,1,111,49.22a3.26,3.26,0,0,1,.77,2.3,3.55,3.55,0,0,1-.75,2.23,4.8,4.8,0,0,1-2.19,1.51,9.65,9.65,0,0,1-3.41.54A12.75,12.75,0,0,1,102.17,55.38Z"/><path class="cls-2" d="M124.67,41.4h-5.6V38.1h15.25v3.3h-5.6V55.6h-4Z"/><path class="cls-2" d="M141.28,42.45A6.87,6.87,0,0,1,144,42v3.6c-.44,0-.73,0-.88,0a3.57,3.57,0,0,0-2.62.93,3.79,3.79,0,0,0-1,2.82V55.6h-3.9V42.15h3.72v1.77A4.34,4.34,0,0,1,141.28,42.45Z"/><path class="cls-2" d="M146.29,39.65a2,2,0,0,1-.67-1.55,2,2,0,0,1,.67-1.55,2.46,2.46,0,0,1,1.75-.63,2.53,2.53,0,0,1,1.75.6,1.93,1.93,0,0,1,.68,1.5,2.11,2.11,0,0,1-.68,1.61,2.42,2.42,0,0,1-1.75.64A2.49,2.49,0,0,1,146.29,39.65Zm-.2,2.5H150V55.6h-3.9Z"/><path class="cls-2" d="M164.73,42.81a6.16,6.16,0,0,1,2.41,2.42,8,8,0,0,1,0,7.28,6.16,6.16,0,0,1-2.41,2.42,6.81,6.81,0,0,1-3.41.87,5.2,5.2,0,0,1-4-1.63v6.28h-3.9V42.15h3.72V43.7A5.18,5.18,0,0,1,161.32,42,6.8,6.8,0,0,1,164.73,42.81Zm-1.63,8.77a4.27,4.27,0,0,0,0-5.42,3.5,3.5,0,0,0-4.92,0,4.31,4.31,0,0,0,0,5.42,3.48,3.48,0,0,0,4.92,0Z"/><path class="cls-2" d="M76.74,84.91a6.61,6.61,0,0,1-2.67-2.46,6.8,6.8,0,0,1,2.67-9.62A8.28,8.28,0,0,1,80.6,72a7.52,7.52,0,0,1,3.72.88,5.28,5.28,0,0,1,2.31,2.54L83.6,77a3.28,3.28,0,0,0-3-1.85,3.42,3.42,0,0,0-2.53,1,3.69,3.69,0,0,0-1,2.72,3.73,3.73,0,0,0,1,2.73,3.46,3.46,0,0,0,2.53,1,3.27,3.27,0,0,0,3-1.85l3,1.65a5.37,5.37,0,0,1-2.31,2.5,7.42,7.42,0,0,1-3.72.9A8.29,8.29,0,0,1,76.74,84.91Z"/><path class="cls-2" d="M100.74,73.45a5.92,5.92,0,0,1,1.54,4.45v7.7h-3.9V78.5a3.48,3.48,0,0,0-.7-2.39,2.56,2.56,0,0,0-2-.79,3.15,3.15,0,0,0-2.35.91A3.81,3.81,0,0,0,92.43,79V85.6h-3.9V67.05h3.9v6.5a5.12,5.12,0,0,1,1.87-1.19A6.72,6.72,0,0,1,96.7,72,5.53,5.53,0,0,1,100.74,73.45Z"/><path class="cls-2" d="M118.8,80H108.63a3.18,3.18,0,0,0,1.3,2,4.31,4.31,0,0,0,2.55.72,5.11,5.11,0,0,0,1.86-.31,4.49,4.49,0,0,0,1.51-1l2.08,2.25a7,7,0,0,1-5.55,2.18,8.82,8.82,0,0,1-4-.89,6.57,6.57,0,0,1-2.7-2.46,6.84,6.84,0,0,1-1-3.58,6.94,6.94,0,0,1,.94-3.56,6.69,6.69,0,0,1,2.58-2.48,7.56,7.56,0,0,1,3.66-.88,7.41,7.41,0,0,1,3.57.85A6.2,6.2,0,0,1,118,75.23a7.26,7.26,0,0,1,.91,3.69S118.85,79.32,118.8,80Zm-9.12-4.32a3.17,3.17,0,0,0-1.1,2h6.62a3.22,3.22,0,0,0-1.1-2,3.27,3.27,0,0,0-2.2-.76A3.35,3.35,0,0,0,109.68,75.65Z"/><path class="cls-2" d="M123.87,84.91a6.64,6.64,0,0,1-2.68-2.46,6.79,6.79,0,0,1,2.68-9.62,8.28,8.28,0,0,1,3.86-.88,7.49,7.49,0,0,1,3.71.88,5.28,5.28,0,0,1,2.31,2.54l-3,1.63a3.3,3.3,0,0,0-3-1.85,3.41,3.41,0,0,0-2.52,1,3.65,3.65,0,0,0-1,2.72,3.69,3.69,0,0,0,1,2.73,3.45,3.45,0,0,0,2.52,1,3.27,3.27,0,0,0,3-1.85l3,1.65a5.37,5.37,0,0,1-2.31,2.5,7.39,7.39,0,0,1-3.71.9A8.29,8.29,0,0,1,123.87,84.91Z"/><path class="cls-2" d="M141.43,80.32l-1.88,1.85V85.6h-3.9V67.05h3.9v10.5l5.7-5.4h4.65l-5.6,5.7,6.1,7.75h-4.72Z"/><rect class="cls-3" x="9.28" y="9.28" width="198.04" height="198.04"/></svg>