<svg id="Layer_1" data-name="Layer 1" xmlns="http://www.w3.org/2000/svg" viewBox="0 0 185.56 185.56"><defs><style>.cls-1{fill:#0b40c4;}.cls-2{fill:#fff;}.cls-2,.cls-3{stroke:#000;stroke-miterlimit:10;stroke-width:5px;}.cls-3{fill:none;stroke-linecap:round;}</style></defs><circle class="cls-1" cx="92.78" cy="92.78" r="92.78"/><polygon class="cls-2" points="93.05 101.19 61.52 101.19 55.56 110.15 49.82 101.19 26.57 101.19 26.57 56.93 93.05 56.93 93.05 101.19"/><polygon class="cls-2" points="145.17 77.34 82.34 77.34 76.38 86.3 70.63 77.34 47.38 77.34 47.38 33.08 145.17 33.08 145.17 77.34"/><circle cx="64.51" cy="56.24" r="2.45"/><circle cx="77.19" cy="56.24" r="2.45"/><circle cx="89.87" cy="56.24" r="2.45"/><polygon class="cls-2" points="118.55 40.52 102.42 46.78 102.42 65.22 118.82 81.58 135.15 65.22 135.15 46.78 118.55 40.52"/><polyline class="cls-2" points="109.96 58.22 117.4 65.66 128.23 54.82"/><circle class="cls-2" cx="92.41" cy="132.27" r="31.8"/><line class="cls-3" x1="61.78" y1="135.26" x2="140.11" y2="121.41"/><line class="cls-3" x1="91.41" y1="117.02" x2="115.79" y2="112.42"/></svg>