<svg id="Layer_1" data-name="Layer 1" xmlns="http://www.w3.org/2000/svg" viewBox="0 0 207.66 207.66"><defs><style>.cls-1{fill:#ececec;}.cls-2{fill:#98c6fc;}.cls-3{fill:#1e80cb;}.cls-4{fill:#ffb000;}.cls-5{fill:none;stroke:#ffb000;stroke-linecap:round;stroke-miterlimit:10;stroke-width:6px;}</style></defs><rect class="cls-1" width="207.66" height="207.66"/><path class="cls-2" d="M53,173.64H67.23V138.05H53Z"/><path class="cls-2" d="M95.7,118.48A19.58,19.58,0,1,0,115.28,98.9,19.58,19.58,0,0,0,95.7,118.48Zm24.92-5.34a5.34,5.34,0,1,0-5.34,5.34,5.34,5.34,0,1,1-5.34,5.33,5.34,5.34,0,1,0,5.34-5.33,5.34,5.34,0,1,1,5.34-5.34Z"/><path class="cls-2" d="M61.89,86.44a16,16,0,1,0,16-16A16,16,0,0,0,61.89,86.44Zm19.58-3.56a3.56,3.56,0,1,0-3.56,3.56A3.56,3.56,0,1,1,74.35,90a3.56,3.56,0,1,0,3.56-3.56,3.56,3.56,0,1,1,3.56-3.56Z"/><path class="cls-2" d="M142,70.43a12.46,12.46,0,1,0,12.46,12.45A12.45,12.45,0,0,0,142,70.43Zm0,12.45a3.56,3.56,0,1,1-3.56,3.56A3.56,3.56,0,1,0,142,82.88a3.56,3.56,0,1,1,3.56-3.55A3.56,3.56,0,1,0,142,82.88Z"/><path class="cls-3" d="M137.86,133.48l-20.77,12a7.09,7.09,0,0,0-4.16-3.09L89.27,136a15.93,15.93,0,0,0-11.92,1.47L69,142.14v-4.09a1.78,1.78,0,0,0-1.78-1.78H53a1.78,1.78,0,0,0-1.78,1.78v35.59A1.78,1.78,0,0,0,53,175.42H67.23A1.78,1.78,0,0,0,69,173.64v-4.89a15.79,15.79,0,0,0,9.45,3.11h17a16.05,16.05,0,0,0,8-2.11L145,145.82a7.13,7.13,0,0,0-3.6-13.28,7.17,7.17,0,0,0-3.53.94ZM65.45,171.86H54.77v-32H65.45Zm77.75-29.12-41.54,23.92a12.4,12.4,0,0,1-6.18,1.64h-17a12.34,12.34,0,0,1-8.8-3.65L69,164v-17.8l10.06-5.59a12.37,12.37,0,0,1,9.28-1.14L112,145.81a3.56,3.56,0,1,1-1.71,6.91l-.13,0L94.54,148.5a1.78,1.78,0,0,0-.93,3.44s16.86,4.44,17.49,4.44a7,7,0,0,0,7.08-6.92c0-.17,0-.33,0-.5l21.47-12.39a3.57,3.57,0,0,1,4.85,1.29,3.61,3.61,0,0,1,.48,1.79A3.54,3.54,0,0,1,143.2,142.74Z"/><path class="cls-3" d="M115.28,139.83a21.36,21.36,0,1,0-21.36-21.35A21.35,21.35,0,0,0,115.28,139.83Zm0-39.15a17.8,17.8,0,1,1-17.8,17.8A17.79,17.79,0,0,1,115.28,100.68Z"/><path class="cls-3" d="M77.91,91.78A1.77,1.77,0,0,1,76.13,90a1.78,1.78,0,0,0-3.56,0,5.33,5.33,0,0,0,3.56,5v2.11a1.78,1.78,0,0,0,3.56,0V95a5.33,5.33,0,0,0-1.78-10.35,1.78,1.78,0,1,1,1.78-1.78,1.78,1.78,0,0,0,3.56,0,5.35,5.35,0,0,0-3.56-5v-2.1a1.78,1.78,0,0,0-3.56,0v2.1a5.32,5.32,0,0,0,1.78,10.35,1.78,1.78,0,0,1,0,3.56Z"/><path class="cls-3" d="M77.91,104.24a17.8,17.8,0,1,0-17.8-17.8A17.79,17.79,0,0,0,77.91,104.24Zm0-32A14.24,14.24,0,1,1,63.67,86.44,14.23,14.23,0,0,1,77.91,72.21Z"/><path class="cls-3" d="M115.28,127.37a3.56,3.56,0,0,1-3.56-3.56,1.78,1.78,0,0,0-3.56,0,7.12,7.12,0,0,0,5.34,6.87v2a1.78,1.78,0,0,0,3.56,0v-2a7.1,7.1,0,0,0-1.78-14,3.56,3.56,0,1,1,3.56-3.56,1.78,1.78,0,0,0,3.56,0,7.13,7.13,0,0,0-5.34-6.87v-2a1.78,1.78,0,1,0-3.56,0v2a7.1,7.1,0,0,0,1.78,14,3.56,3.56,0,0,1,0,7.12Z"/><path class="cls-3" d="M142,68.65a14.24,14.24,0,1,0,14.24,14.23A14.24,14.24,0,0,0,142,68.65Zm0,19.57a1.78,1.78,0,0,1-1.78-1.78,1.78,1.78,0,0,0-3.56,0,5.34,5.34,0,0,0,3.56,5v2a10.66,10.66,0,0,1,0-21v1.94A5.33,5.33,0,0,0,142,84.66a1.78,1.78,0,1,1,0,3.56Zm1.78,5.18v-2A5.33,5.33,0,0,0,142,81.1a1.78,1.78,0,1,1,1.78-1.77,1.78,1.78,0,0,0,3.56,0,5.35,5.35,0,0,0-3.56-5V72.37a10.66,10.66,0,0,1,0,21Z"/><path d="M73.65,51.36l-7.1,3.4.22,3.93-3.63,1.74-.52-18.56,3.5-1.68,14.17,12L76.57,54Zm-2.4-2.15L66,44.51l.39,7Z"/><path d="M84,39.39a6.82,6.82,0,0,1,2.51-1l.65,3.43c-.42,0-.7.08-.84.11A3.47,3.47,0,0,0,84,43.33a3.66,3.66,0,0,0-.39,2.85l1.14,6-3.71.71L78.62,40.12l3.55-.67.32,1.69A4.14,4.14,0,0,1,84,39.39Z"/><path d="M99.51,50.19a4,4,0,0,1-1.34.69,7,7,0,0,1-1.69.29,5,5,0,0,1-3.66-1,4.52,4.52,0,0,1-1.45-3.42l-.29-5.34-2,.11-.15-2.91,2-.1-.17-3.17,3.77-.21.17,3.17,3.24-.17L98.1,41l-3.25.18.29,5.29a1.77,1.77,0,0,0,.49,1.25,1.57,1.57,0,0,0,1.22.39,2.5,2.5,0,0,0,1.5-.57Z"/><path d="M109.14,38.28l3.77.35-1.22,13-3.76-.35Zm.42-2.4a2.05,2.05,0,0,1,.28-3,2.39,2.39,0,0,1,1.75-.44,2.42,2.42,0,0,1,1.63.74,1.85,1.85,0,0,1,.52,1.5,2.08,2.08,0,0,1-.8,1.5,2.37,2.37,0,0,1-1.74.46A2.4,2.4,0,0,1,109.56,35.88Z"/><path d="M116.08,51.93a8.54,8.54,0,0,1-2.27-1.41l1.7-2.46a8.14,8.14,0,0,0,1.93,1.25,8.67,8.67,0,0,0,2.33.75c1.57.27,2.43,0,2.56-.76a.84.84,0,0,0-.51-.9,10.17,10.17,0,0,0-1.91-.75,18.49,18.49,0,0,1-2.51-1,4,4,0,0,1-1.59-1.4,3.17,3.17,0,0,1-.37-2.38,3.62,3.62,0,0,1,1.07-2,4.56,4.56,0,0,1,2.31-1.11,8.81,8.81,0,0,1,3.28,0,12.53,12.53,0,0,1,2.65.77,7.64,7.64,0,0,1,2.1,1.2l-1.7,2.44a7.53,7.53,0,0,0-3.54-1.59,3.92,3.92,0,0,0-1.84,0,1,1,0,0,0-.75.76.85.85,0,0,0,.5.94,10.78,10.78,0,0,0,2,.81,21.69,21.69,0,0,1,2.48,1,3.86,3.86,0,0,1,1.56,1.39,3.14,3.14,0,0,1,.37,2.32,3.47,3.47,0,0,1-1.08,2,4.72,4.72,0,0,1-2.34,1.09,9.47,9.47,0,0,1-3.35,0A13.38,13.38,0,0,1,116.08,51.93Z"/><rect class="cls-4" x="13.13" y="94.57" width="179.25" height="40.98" transform="translate(-20.62 22.45) rotate(-11.34)"/><path d="M62.46,115.61l-2.11,17.72-4.13.83L50.3,123.63l-1.52,12-4.1.82-8.8-15.53,4-.8L46,131.07l1.58-12.47,3.56-.71,6.17,11,1.51-12.55Z"/><path d="M69.05,130.9a6.34,6.34,0,0,1-3-1.83,7,7,0,0,1-1.36-6.8,6.36,6.36,0,0,1,2-2.84A8.33,8.33,0,0,1,74,118a6.39,6.39,0,0,1,3,1.84A6.66,6.66,0,0,1,78.53,123a6.51,6.51,0,0,1-.23,3.57,6.34,6.34,0,0,1-2,2.84,8.31,8.31,0,0,1-7.23,1.45Zm5.33-4.35a3.64,3.64,0,0,0,.39-2.76,3.59,3.59,0,0,0-1.43-2.39,3.14,3.14,0,0,0-2.53-.5,3.18,3.18,0,0,0-2.16,1.44,3.59,3.59,0,0,0-.41,2.76,3.69,3.69,0,0,0,1.44,2.39,3.42,3.42,0,0,0,4.7-.94Z"/><path d="M85.11,115.37a6.73,6.73,0,0,1,2.5-1l.69,3.42q-.63.08-.84.12a3.45,3.45,0,0,0-2.32,1.39,3.71,3.71,0,0,0-.37,2.85l1.21,6-3.7.74-2.56-12.78,3.53-.71.34,1.69A4.15,4.15,0,0,1,85.11,115.37Z"/><path d="M101,124.54a3.93,3.93,0,0,1-1.22.87,7.09,7.09,0,0,1-1.63.54,5.09,5.09,0,0,1-3.76-.46,4.52,4.52,0,0,1-1.94-3.17l-1-5.25-2,.4-.57-2.85,2-.4-.63-3.11,3.71-.74.62,3.11,3.19-.64.57,2.85-3.18.64,1,5.2a1.77,1.77,0,0,0,.66,1.16,1.58,1.58,0,0,0,1.27.21,2.47,2.47,0,0,0,1.4-.78Z"/><path d="M112.49,110.86a5.75,5.75,0,0,1,2.31,3.94l1.47,7.31-3.71.75-1.35-6.75a3.39,3.39,0,0,0-1.12-2.13,2.47,2.47,0,0,0-2.07-.37,3,3,0,0,0-2.06,1.32,3.68,3.68,0,0,0-.32,2.74l1.27,6.32-3.7.74-3.54-17.62,3.71-.75,1.23,6.18a5.3,5.3,0,0,1,1.56-1.49,6.46,6.46,0,0,1,2.2-.84A5.36,5.36,0,0,1,112.49,110.86Z"/><path d="M116.08,103.82l3.71-.75,3.53,17.63-3.7.74Z"/><path d="M138.14,112.17l-9.66,1.94a3.07,3.07,0,0,0,1.61,1.62,4.18,4.18,0,0,0,2.56.21,5.25,5.25,0,0,0,1.71-.65,4.56,4.56,0,0,0,1.25-1.23l2.4,1.74a6.79,6.79,0,0,1-4.86,3.13,8.61,8.61,0,0,1-4-.08,6.26,6.26,0,0,1-3-1.83,6.53,6.53,0,0,1-1.58-3.21,6.72,6.72,0,0,1,.21-3.57,6.39,6.39,0,0,1,2-2.84,7.38,7.38,0,0,1,3.32-1.54,7.19,7.19,0,0,1,3.55.13,6,6,0,0,1,2.86,1.84,7,7,0,0,1,1.57,3.32S138.07,111.54,138.14,112.17Zm-9.49-2.37A3.1,3.1,0,0,0,128,112l6.29-1.26a3.12,3.12,0,0,0-1.43-1.72,3.17,3.17,0,0,0-2.24-.31A3.25,3.25,0,0,0,128.65,109.8Z"/><path d="M142.9,116.56a8.29,8.29,0,0,1-2.62-.5l.71-2.91a8,8,0,0,0,2.24.48,9,9,0,0,0,2.45-.13c1.56-.32,2.27-.86,2.11-1.64a.83.83,0,0,0-.79-.65,9.71,9.71,0,0,0-2.06,0,19.49,19.49,0,0,1-2.7,0,4,4,0,0,1-2-.74,3.11,3.11,0,0,1-1.2-2.08,3.59,3.59,0,0,1,.27-2.29,4.56,4.56,0,0,1,1.75-1.87,8.94,8.94,0,0,1,3.07-1.16,12.62,12.62,0,0,1,2.75-.24,7.79,7.79,0,0,1,2.39.37l-.71,2.89a7.56,7.56,0,0,0-3.87-.22,3.82,3.82,0,0,0-1.72.69,1,1,0,0,0-.42,1,.86.86,0,0,0,.81.7,11.36,11.36,0,0,0,2.13,0,22.19,22.19,0,0,1,2.68.05,4,4,0,0,1,1.95.73,3.06,3.06,0,0,1,1.17,2,3.45,3.45,0,0,1-.28,2.26,4.7,4.7,0,0,1-1.79,1.85,9.57,9.57,0,0,1-3.14,1.16A12.79,12.79,0,0,1,142.9,116.56Z"/><path d="M155.52,114a8.18,8.18,0,0,1-2.62-.5l.7-2.91a8,8,0,0,0,2.24.48,9,9,0,0,0,2.45-.13c1.57-.32,2.27-.86,2.12-1.64a.85.85,0,0,0-.8-.65,9.61,9.61,0,0,0-2.05,0,19.43,19.43,0,0,1-2.7,0,4,4,0,0,1-2-.74,3.15,3.15,0,0,1-1.2-2.08,3.59,3.59,0,0,1,.27-2.29,4.63,4.63,0,0,1,1.75-1.87,9,9,0,0,1,3.07-1.16,12.62,12.62,0,0,1,2.75-.24,7.79,7.79,0,0,1,2.39.37l-.71,2.89a7.45,7.45,0,0,0-3.87-.21,3.61,3.61,0,0,0-1.71.69,1,1,0,0,0-.43,1,.87.87,0,0,0,.81.7,11.36,11.36,0,0,0,2.13,0,22.14,22.14,0,0,1,2.68.05,3.88,3.88,0,0,1,1.95.73,3.13,3.13,0,0,1,1.18,2,3.42,3.42,0,0,1-.29,2.25,4.6,4.6,0,0,1-1.79,1.86,9.48,9.48,0,0,1-3.14,1.16A12.71,12.71,0,0,1,155.52,114Z"/><path class="cls-5" d="M126.3,183.7A49.25,49.25,0,0,0,158,172.51c16.39-13.39,16.5-28.1,16.5-28.1"/><path class="cls-5" d="M69.19,26.83s-15.9,2.61-27,18.63C30.21,62.88,33.81,78,33.81,78"/></svg>