<svg id="Layer_1" data-name="Layer 1" xmlns="http://www.w3.org/2000/svg" viewBox="0 0 227.88 222.19"><defs><style>.cls-1{fill:#ffb000;}.cls-2{fill:#0b40c4;}.cls-3{fill:#fff;}.cls-3,.cls-4,.cls-7,.cls-8{stroke:#000;}.cls-3,.cls-4,.cls-5,.cls-6,.cls-7,.cls-8{stroke-linecap:round;stroke-linejoin:round;}.cls-3,.cls-5,.cls-6,.cls-7,.cls-8{stroke-width:4px;}.cls-4,.cls-6,.cls-8{fill:none;}.cls-4{stroke-width:3px;}.cls-5,.cls-6{stroke:#0b40c4;}</style></defs><rect class="cls-1" x="0.82" y="0.84" width="226.24" height="220.5" transform="translate(0.84 -0.85) rotate(0.43)"/><path class="cls-2" d="M136.16,70.2l-34.65,5.86a56.93,56.93,0,0,0-46.66,65.63l2.49,14.75a45,45,0,0,0,51.88,36.89l4.64-.79,17.13-5c20.44-6,34-25.88,31.29-47-.07-.57-.16-1.15-.26-1.73l-9.63-57A14.08,14.08,0,0,0,136.16,70.2Z"/><rect class="cls-2" x="143.46" y="125.47" width="9.74" height="15.8" rx="4.87" transform="translate(-20.14 26.57) rotate(-9.59)"/><rect class="cls-2" x="139.42" y="123.98" width="15.2" height="22.47" rx="7.6" transform="translate(-20.47 26.38) rotate(-9.59)"/><path class="cls-2" d="M149,146.74s-2.71,4.76-5.69,4.91-.67-4-2.06-8.4"/><path class="cls-2" d="M87.09,137.47c-1.35,3.38-5.34,6.26-10.42,7.12s-9.76-.55-12.15-3.28"/><path class="cls-2" d="M117.05,167.51c-1.34,3.38-5.33,6.26-10.41,7.12s-9.77-.55-12.15-3.28"/><path class="cls-2" d="M124,131.23c-1.35,3.38-5.34,6.27-10.42,7.12s-9.76-.54-12.15-3.28"/><circle class="cls-2" cx="88.8" cy="154.99" r="0.94"/><path class="cls-3" d="M121,79.18,86.34,85a56.94,56.94,0,0,0-46.66,65.63l2.49,14.75A45,45,0,0,0,94.05,202.3l4.64-.78,17.13-5c20.44-6,34-25.88,31.29-47-.07-.58-.16-1.15-.26-1.73l-9.63-57A14.07,14.07,0,0,0,121,79.18Z"/><rect class="cls-4" x="128.29" y="134.45" width="9.74" height="15.8" rx="4.87" transform="translate(-21.85 24.17) rotate(-9.59)"/><rect class="cls-4" x="124.25" y="132.96" width="15.2" height="22.47" rx="7.6" transform="translate(-22.17 23.97) rotate(-9.59)"/><path class="cls-4" d="M133.82,155.72s-2.71,4.76-5.69,4.9-.67-4-2.06-8.39"/><path class="cls-3" d="M71.92,146.45c-1.35,3.37-5.34,6.26-10.42,7.12s-9.76-.55-12.15-3.28"/><path class="cls-3" d="M101.88,176.49c-1.34,3.37-5.33,6.26-10.41,7.12s-9.77-.55-12.15-3.28"/><path class="cls-3" d="M108.84,140.21c-1.35,3.38-5.34,6.26-10.42,7.12s-9.76-.55-12.15-3.28"/><circle class="cls-3" cx="73.63" cy="163.96" r="0.94"/><circle class="cls-5" cx="159.3" cy="192.97" r="6.37"/><path class="cls-6" d="M174.68,180.93s1.88-15.32-9.94-15.32V189"/><circle class="cls-7" cx="156.36" cy="194.97" r="6.37"/><path class="cls-8" d="M171.75,182.92s1.88-15.31-9.95-15.31V191"/><path class="cls-2" d="M80.54,16.05l9.22.07-.07,9.5,8.48.06.07-9.5,9.18.07-.2,25.89L98,42.07l.07-9.7-8.48-.06L89.56,42l-9.21-.07Z"/><path class="cls-2" d="M134.51,32.26c-.06,8.55-5.33,10.52-12.56,10.47s-12.46-2.11-12.4-10.66c.06-7.8,5.4-10.58,12.56-10.52S134.57,24.46,134.51,32.26Zm-8.16.07v-.48c0-3.26-1.08-4.75-4.28-4.77s-4.33,1.44-4.36,4.7v.48c0,3.3,1.28,4.84,4.28,4.87S126.33,35.63,126.35,32.33Z"/><path class="cls-2" d="M162.37,42.55,154,42.49l-2.6-11.64h-.06l-2.75,11.6-8.83-.07L134,22.27l8.28.06,2.85,12.09h.13l2.62-12,8.13.06,2.69,12.08h.1l2.84-12,7,.06Z"/><path class="cls-2" d="M197.79,45.82l0,4.83-5.15,0,0-4.83-7.3-.06c-1.86,0-2.72.46-2.74,2.76a8.21,8.21,0,0,0,.21,2.05l-5,0a25.89,25.89,0,0,1-.57-5.8c0-3.84,1.09-8.09,6.66-8.05l8.79.07,0-3.13,5.15,0,0,3.14,2.24,0,4.5,9.09Z"/><path class="cls-2" d="M187.57,76.35C179,76.29,177.05,71,177.11,63.79s2.11-12.46,10.65-12.4c7.81.06,10.59,5.4,10.53,12.56S195.38,76.41,187.57,76.35Zm-.06-8.16H188c3.26,0,4.74-1.08,4.77-4.28s-1.44-4.33-4.71-4.35h-.48c-3.29,0-4.84,1.28-4.86,4.28S184.21,68.17,187.51,68.19Z"/><path class="cls-2" d="M186.84,97.88c-3.11,0-4.43,1.63-4.45,3.68,0,2.5,1.38,3.66,4.39,3.68l10.56.08-.07,9.06-20.06-.15.06-8.13,1.32-.31v-.07c-1-1.41-1.77-3.24-1.74-7,.05-6.72,3.88-9.63,10.5-9.58l10.11.08L197.4,98Z"/><path class="cls-2" d="M190.91,130.79c1.57,0,2-1.46,2-2.8s-.23-2.56-1.35-2.57c-.48,0-.77.51-.94,1-.55,1.44-.77,4.7-1.59,7.7s-2,5.91-5.33,5.88c-5.92,0-7.09-6.26-7-11.86s1.46-11.57,7.45-11.56l-.07,8.64c-1.79,0-2.28,1.45-2.3,3.28,0,1.53.33,2.94,1.36,3s1.28-.72,2-4.85c1.14-6.74,3-9.83,6.45-9.8,5.47,0,6.38,6.38,6.34,11,0,5-1.33,10.68-7,11.18Z"/><path class="cls-2" d="M183.39,165.34c-5.66-1.36-7-5.62-6.95-11.7.05-7.26,2.11-12.46,10.65-12.4,7.81.06,10.58,5.39,10.53,12.56s-3.23,11.88-10.72,11.95a19.25,19.25,0,0,1-2.07-.14l.12-16.07c-2.28.43-3.25,1.77-3.27,4.36,0,1.6.52,3.14,1.77,3.34Zm6.1-15.76-.06,8c1.8-.37,2.63-1.42,2.65-3.82S191.44,150,189.49,149.58Z"/><circle class="cls-5" cx="39.06" cy="55.21" r="6.57"/><line class="cls-5" x1="44.67" y1="27" x2="44.67" y2="51.1"/><circle class="cls-5" cx="61.6" cy="72.08" r="6.57"/><line class="cls-5" x1="67.21" y1="43.86" x2="67.21" y2="67.97"/><circle class="cls-7" cx="36.13" cy="57.21" r="6.57"/><line class="cls-7" x1="41.74" y1="29" x2="41.74" y2="53.1"/><circle class="cls-7" cx="58.66" cy="74.08" r="6.57"/><line class="cls-7" x1="64.27" y1="45.86" x2="64.27" y2="69.96"/></svg>