<svg id="Layer_1" data-name="Layer 1" xmlns="http://www.w3.org/2000/svg" viewBox="0 0 262.73 183"><defs><style>.cls-1{fill:#0b40c4;}.cls-2{fill:#ececec;}.cls-3{fill:#ffdc4c;}.cls-4{opacity:0.8;isolation:isolate;}.cls-5{fill:#ff657c;}.cls-6{fill:#6a4d1f;}.cls-7{fill:#fff;}.cls-8{fill:#caced4;}</style></defs><rect class="cls-1" width="262.73" height="183"/><path class="cls-2" d="M21.77,17h8.51v7h2V17h8.5V48H21.77Zm8.51,23.31h2V31.64h-2ZM58.43,48h-7.7V36.22h-1.1V48h-7.7V17h7.7V28.53h1.1V17h7.7Z"/><path class="cls-2" d="M73.5,30.65C73.5,20,76.9,16.72,85,16.72S96.58,20,96.58,30.65v3.67c0,10.7-3.4,13.92-11.54,13.92S73.5,45,73.5,34.32Zm13.19,0c0-6.67-.18-7-1.65-7s-1.65.29-1.65,7v3.67c0,6.67.18,7,1.65,7s1.65-.29,1.65-7Zm25.18-2v8.25h-2.71V48H98.53V17h10.63V28.6Z"/><path class="cls-2" d="M149.39,34.87H113.33V29.81h36.06ZM145,22.08v1.53h3.66v5.1h-34.6v-5.1h3.67V22.08h-3.67V17h34.6v5.1ZM114.06,48V36.15h34.6V48Zm11.73-5.06H137v-1.8H125.79Zm2.57-19.32h6V22.08h-6Z"/><path class="cls-2" d="M201.22,31.86H190.6V28.42h-2.86C186.53,30.8,183.45,32,176.16,32,165.56,32,164,29.37,164,24.42s1.54-7.62,12.14-7.62c7.33,0,10.4,1.24,11.58,3.63h2.86V17h10.62ZM182.94,48H164.79V33.33h8.07v2.56h2V33.33h8.07Zm-10.08-4.77h2V39.93h-2Zm3.41-20.3c-1.54,0-1.58.51-1.58,1.5s0,1.47,1.58,1.47,1.57-.48,1.57-1.47S177.8,22.92,176.27,22.92ZM192,48h-8.72l3.92-14.66H199L203,48h-8.73l-1.13-4.25Z"/><path class="cls-2" d="M203.5,30.65c0-10.7,3.52-13.93,11.95-13.93s12,3.23,12,13.93v3.67c0,10.7-3.52,13.92-12,13.92S203.5,45,203.5,34.32Zm13.67,0c0-6.67-.18-7-1.72-7s-1.69.29-1.69,7v3.67c0,6.67.18,7,1.69,7s1.72-.29,1.72-7ZM240,48H229.41V17H240Z"/><path class="cls-2" d="M21.77,61H45.6v2.38h2V61H58.21V82.26H47.58V76.54h-2v2.24H21.77v-6.6H24V67.56h-2.2ZM32.4,83.73H58.57V92H21.77V79.88H32.4Zm.37-11.55H34.6V67.56H32.77Zm12.1-4.62H43.4v4.62h1.47v-1.5h2.71V69.21H44.87Z"/><path class="cls-2" d="M72.6,77.61c-10.6,0-12.14-3-12.14-8.32s1.54-8.4,12.14-8.4,12.27,3,12.27,8.4S83.3,77.61,72.6,77.61Zm-.74,6.12H97.15V92H61.23V78.78H71.86ZM72.6,67.6c-1.58,0-1.51.55-1.51,1.69S71,70.9,72.6,70.9s1.61-.59,1.61-1.61S74.28,67.6,72.6,67.6Zm26.9-.77v7.7H96.79v7.73H86.16V61H96.79v5.86Z"/><path class="cls-2" d="M112.9,77.57c-10.08,0-10.74-3-10.74-7.77v-.92h-1.8V61.7h7.22V59.87h10.63V61.7h7.22v7.18h-1.8v.92C123.63,74.56,123.05,77.57,112.9,77.57Zm-1,6.16h25.29V92H101.24V78.78h10.63Zm1-16.31c-1,0-1,.58-1,2s0,2,1,2,1-.62,1-2S113.85,67.42,112.9,67.42Zm26.6-.59v7.7h-2.71v7.73H126.16V61h10.63v5.86Z"/><path class="cls-2" d="M177,69.21h-24V61.7h6.67V59.5h10.63v2.2H177ZM153.11,80.14c0-7.77,3.7-10.08,12-10.08s12,2.31,12,10.08V81.9c0,7.77-3.7,10.07-12,10.07s-12-2.3-12-10.07Zm14.51.36c0-3-1-3.48-2.49-3.48s-2.49.48-2.49,3.48v1c0,3,.91,3.48,2.49,3.48s2.49-.48,2.49-3.48Zm23.71-7.91v8.24h-2.71V92H178V61h10.63V72.59Z"/><path class="cls-2" d="M228.86,86.11H216.14V92H205.51V86.11H192.79v-6.6h36.07Zm-35-18.69H215V66H193.89V61H227.8V71.78H206.36v1.47H227.8v5H193.89Z"/><path class="cls-2" d="M240,81.6h-7.48l-1.32-21.15h10.08Zm-8.8,2.2h10.08v7.44H231.24Z"/><circle class="cls-3" cx="131.36" cy="115.34" r="40.35"/><g class="cls-4"><path class="cls-5" d="M145.54,100c1.25-4.66,7.5-7,14-5.31s10.68,6.92,9.43,11.58-7.5,7-14,5.31S144.29,104.69,145.54,100Z"/></g><g class="cls-4"><path class="cls-5" d="M93,119.68c-2.77-4-.57-10.28,4.9-14.11s12.16-3.73,14.93.22.58,10.27-4.9,14.11S95.78,123.63,93,119.68Z"/></g><path class="cls-6" d="M123.79,98.27c-3.54-6.13-7.7-8.77-11.29-8.14s-6.59,4.54-7.82,11.51c-.12.7,1.32,1.67,1.82.92a11.15,11.15,0,0,1,15.9-2.81C123.12,100.29,124.14,98.89,123.79,98.27Z"/><path class="cls-6" d="M151.79,93.33c-3.53-6.12-7.7-8.77-11.28-8.13s-6.6,4.54-7.82,11.5c-.13.7,1.31,1.67,1.81.92a11.14,11.14,0,0,1,15.9-2.8C151.12,95.36,152.15,94,151.79,93.33Z"/><path class="cls-6" d="M147.12,110.32c-9.11,9.07-20.64,11.06-32.23,5.68-1.4-.65-2.25,1-1.17,2.29A21.09,21.09,0,0,0,149,112.07C149.59,110.53,148.21,109.23,147.12,110.32Z"/><path class="cls-7" d="M124.4,139.59s2.64-.83,1.62-4.31-10,0-14.38-1.68c0,0,3.65-1.14,2.39-4.17-1.14-2.75-11-3.68-20.59,3.68S90.05,157.83,102,160c8.34,1.48,21,1.23,22.65-2.35,1.28-2.87-2.74-4-2.74-4s5.1,0,5.1-3.87a2,2,0,0,0-1.92-2.27s4.21-.62,4.21-4.52C129.3,139.83,124.4,139.59,124.4,139.59Z"/><path class="cls-8" d="M122.42,147c-2.73.32-10.1.81-10.1.81a36,36,0,0,0,10.33.22c4.69-.66,4.48,4.09-2.19,5-3.18.42-8.25.51-8.25.51a31.7,31.7,0,0,0,7,.45c6.35-.83,5.69,3.92-.36,4.77-10.51,1.47-19.08-.05-23.16-3.09-5.86-4.38-9.41-18.69,2.12-24.11,5.25-2.46,13.74-4.59,15-1.7,1.8,4.15-6,4.68-6,4.68a65.29,65.29,0,0,0,15.47-.18c2.5-.29,4.3,2.77,1.33,4.53C121,140.42,112.28,141,112.28,141a110.61,110.61,0,0,0,11.38-.4C129,140.13,129.51,146.2,122.42,147Zm3.71-7.38c3.23-2.12.49-7.36-3.4-6.71a70.87,70.87,0,0,1-9.06.55,2.67,2.67,0,0,0,1.39-3.16c-.49-2.52-3.85-6.09-17.76-.42a14.23,14.23,0,0,0-9.09,11.82c-.58,5.79,2.07,12.47,6.17,15.52,4.67,3.49,15.37,5.42,25.85,3.4,6.85-1.32,6.15-5.75,3.31-6.5,4.69-.9,5.12-4.87,2.91-6.08C131.84,146.42,130.35,139.86,126.13,139.64Z"/><path class="cls-7" d="M138.33,139.59s-2.64-.83-1.62-4.31,9.94,0,14.38-1.68c0,0-3.65-1.14-2.39-4.17,1.14-2.75,11-3.68,20.6,3.68s3.38,24.72-8.57,26.85c-8.34,1.48-21,1.23-22.65-2.35-1.28-2.87,2.75-4,2.75-4s-5.11,0-5.11-3.87a2,2,0,0,1,1.92-2.27s-4.21-.62-4.21-4.52C133.43,139.83,138.33,139.59,138.33,139.59Z"/><path class="cls-8" d="M139.07,140.57a109.19,109.19,0,0,0,11.38.41s-8.74-.56-11.33-2.1c-3-1.76-1.17-4.81,1.33-4.52a65.56,65.56,0,0,0,15.47.17s-7.83-.53-6-4.67c1.26-2.9,9.75-.77,15,1.7,11.53,5.41,8,19.72,2.12,24.1-4.08,3-12.65,4.56-23.16,3.09-6.06-.84-6.71-5.6-.36-4.76a32.14,32.14,0,0,0,7-.46s-5.07-.09-8.25-.51c-6.67-.88-6.88-5.63-2.19-5a36.18,36.18,0,0,0,10.33-.21s-7.37-.5-10.1-.82C133.22,146.2,133.7,140.13,139.07,140.57Zm-2.79,7.49c-2.21,1.21-1.78,5.18,2.91,6.08-2.84.75-3.54,5.19,3.31,6.5,10.48,2,21.18.09,25.85-3.39,4.1-3.06,6.75-9.73,6.17-15.53a14.23,14.23,0,0,0-9.09-11.82c-13.91-5.67-17.27-2.1-17.76.42a2.66,2.66,0,0,0,1.39,3.16,70.87,70.87,0,0,1-9.06-.55c-3.89-.65-6.63,4.59-3.41,6.71C132.38,139.86,130.89,146.42,136.28,148.06Z"/></svg>