<svg id="Layer_1" data-name="Layer 1" xmlns="http://www.w3.org/2000/svg" viewBox="0 0 207.66 207.66"><defs><style>.cls-1{fill:#ececec;}.cls-2{fill:#1644be;}.cls-3,.cls-5,.cls-6,.cls-7{fill:none;}.cls-3{stroke:#000;stroke-miterlimit:10;}.cls-3,.cls-6{stroke-width:4px;}.cls-4{fill:#d7d7d7;}.cls-5{stroke:#1644be;stroke-width:10px;}.cls-5,.cls-6,.cls-7{stroke-linejoin:bevel;}.cls-6,.cls-7{stroke:#d47e98;}.cls-7{stroke-width:3px;}</style></defs><rect class="cls-1" width="207.66" height="207.66"/><path class="cls-2" d="M56,23h4.95v17.5H56Z"/><path class="cls-2" d="M73.59,39.94a4.7,4.7,0,0,1-1.47.57,8.21,8.21,0,0,1-1.83.2,5.83,5.83,0,0,1-4.08-1.3,5,5,0,0,1-1.42-3.87V31h-2V27.44h2V23.91h4.75v3.53h3.1V31h-3.1v4.5a1.57,1.57,0,0,0,.39,1.13A1.32,1.32,0,0,0,71,37a2.53,2.53,0,0,0,1.45-.43Z"/><path class="cls-2" d="M79.46,22.49a2.65,2.65,0,0,1,.8,2,4.54,4.54,0,0,1-.15,1.15,12.11,12.11,0,0,1-.65,1.72L77.86,31h-3L76.06,27A2.54,2.54,0,0,1,75,26a2.9,2.9,0,0,1-.38-1.49,2.65,2.65,0,0,1,.8-2,3,3,0,0,1,4.07,0Z"/><path class="cls-2" d="M83.59,40.32a8.74,8.74,0,0,1-2.65-1l1.42-3.25a8,8,0,0,0,2.2.91,9.63,9.63,0,0,0,2.53.34,4,4,0,0,0,1.63-.24.74.74,0,0,0,.49-.69c0-.3-.19-.51-.59-.63a11.68,11.68,0,0,0-1.86-.37A17.72,17.72,0,0,1,84,34.86a4.3,4.3,0,0,1-2-1.2,3.43,3.43,0,0,1-.83-2.45A3.66,3.66,0,0,1,82,28.9a5.05,5.05,0,0,1,2.26-1.6,9.72,9.72,0,0,1,3.56-.59,14.42,14.42,0,0,1,2.93.3,8.34,8.34,0,0,1,2.42.85l-1.42,3.22a8,8,0,0,0-3.9-1,3.79,3.79,0,0,0-1.65.27.78.78,0,0,0-.53.69c0,.31.19.53.58.66a13.37,13.37,0,0,0,1.9.38,20.88,20.88,0,0,1,2.77.58,4.23,4.23,0,0,1,1.91,1.19,3.34,3.34,0,0,1,.82,2.41,3.67,3.67,0,0,1-.78,2.29,5,5,0,0,1-2.29,1.58,10.05,10.05,0,0,1-3.63.58A14.47,14.47,0,0,1,83.59,40.32Z"/><path class="cls-2" d="M107,39.66a9,9,0,0,1,0-15.85,11.14,11.14,0,0,1,10,0,8.84,8.84,0,0,1,3.47,3.25,9.24,9.24,0,0,1,0,9.35A8.84,8.84,0,0,1,117,39.66a11.23,11.23,0,0,1-10,0Zm7.39-3.55a4.5,4.5,0,0,0,1.7-1.76,5.74,5.74,0,0,0,0-5.23,4.5,4.5,0,0,0-1.7-1.76,5,5,0,0,0-4.8,0,4.5,4.5,0,0,0-1.7,1.76,5.82,5.82,0,0,0,0,5.23,4.5,4.5,0,0,0,1.7,1.76,4.89,4.89,0,0,0,4.8,0Z"/><path class="cls-2" d="M131.09,34.13l-1.85,2v4.38h-4.9V23h4.9v7.27L136,23h5.45l-7.15,7.75,7.53,9.75h-5.75Z"/><path class="cls-2" d="M143.11,40a2.5,2.5,0,0,1-.8-1.87,2.37,2.37,0,0,1,.8-1.84,3.23,3.23,0,0,1,4.09,0,2.4,2.4,0,0,1,.79,1.84,2.5,2.5,0,0,1-.8,1.87,3.12,3.12,0,0,1-4.08,0Zm-.77-17H148l-1,11.12h-3.78Z"/><path class="cls-3" d="M58.08,168.24v-77A11.76,11.76,0,0,1,69.84,79.49h65.63a11.77,11.77,0,0,1,11.76,11.76V167.7"/><path d="M82.8,79.66h39.7a0,0,0,0,1,0,0v1.21a6.63,6.63,0,0,1-6.63,6.63H89.44a6.63,6.63,0,0,1-6.63-6.63V79.66A0,0,0,0,1,82.8,79.66Z"/><path d="M82.59,109.14a2.66,2.66,0,0,1,1.15,1,2.6,2.6,0,0,1,.4,1.46,2.57,2.57,0,0,1-.4,1.45,2.64,2.64,0,0,1-1.15.95,4.14,4.14,0,0,1-1.75.34h-1.3v1.94h-2.1v-7.43h3.4A4.3,4.3,0,0,1,82.59,109.14Zm-.9,3.22a1,1,0,0,0,.33-.8,1,1,0,0,0-.33-.81,1.47,1.47,0,0,0-1-.29H79.54v2.18h1.17A1.47,1.47,0,0,0,81.69,112.36Z"/><path d="M85.16,108.81h2.1v7.43h-2.1Z"/><path d="M95.83,108.81v7.43H94.1l-3.28-4v4H88.76v-7.43h1.73l3.28,4v-4Z"/><path d="M102,115.9a3.66,3.66,0,0,1-1.46-1.38,4,4,0,0,1,0-4,3.66,3.66,0,0,1,1.46-1.38,4.52,4.52,0,0,1,2.1-.49,4.46,4.46,0,0,1,1.83.36,3.51,3.51,0,0,1,1.36,1L106,111.27a2.22,2.22,0,0,0-1.76-.87,2.1,2.1,0,0,0-1.07.27,1.82,1.82,0,0,0-.74.74,2.39,2.39,0,0,0-.26,1.11,2.33,2.33,0,0,0,.26,1.11,1.78,1.78,0,0,0,.74.75,2.1,2.1,0,0,0,1.07.27,2.22,2.22,0,0,0,1.76-.87L107.3,115a3.51,3.51,0,0,1-1.36,1,4.46,4.46,0,0,1-1.83.36A4.52,4.52,0,0,1,102,115.9Z"/><path d="M109.18,116a2.9,2.9,0,0,1-1.16-1.06,2.85,2.85,0,0,1-.42-1.54,2.89,2.89,0,0,1,.42-1.53,2.81,2.81,0,0,1,1.16-1,3.63,3.63,0,0,1,1.67-.38,3.71,3.71,0,0,1,1.68.38,2.79,2.79,0,0,1,1.15,1,2.92,2.92,0,0,1-1.15,4.13,3.59,3.59,0,0,1-1.68.39A3.55,3.55,0,0,1,109.18,116Zm2.54-1.58a1.45,1.45,0,0,0,.34-1,1.41,1.41,0,0,0-.34-1,1.15,1.15,0,0,0-.87-.36,1.12,1.12,0,0,0-.87.36,1.41,1.41,0,0,0-.34,1,1.45,1.45,0,0,0,.34,1,1.12,1.12,0,0,0,.87.36A1.15,1.15,0,0,0,111.72,114.37Z"/><path d="M121.15,108.36v7.88h-1.93v-.57a2.08,2.08,0,0,1-1.68.67,2.91,2.91,0,0,1-1.44-.37,2.58,2.58,0,0,1-1-1,3.41,3.41,0,0,1,0-3.13,2.62,2.62,0,0,1,1-1,2.9,2.9,0,0,1,1.44-.36,2.09,2.09,0,0,1,1.59.6v-2.63Zm-2.33,6a1.69,1.69,0,0,0,0-2,1.23,1.23,0,0,0-1.74,0,1.41,1.41,0,0,0-.34,1,1.45,1.45,0,0,0,.34,1,1.15,1.15,0,0,0,.87.36A1.13,1.13,0,0,0,118.82,114.37Z"/><path d="M128.29,113.87h-4.18a1.17,1.17,0,0,0,.49.69,1.66,1.66,0,0,0,.92.24,2,2,0,0,0,.72-.12,2.43,2.43,0,0,0,.61-.38l1.06,1.1a3.14,3.14,0,0,1-2.45.94,3.86,3.86,0,0,1-1.78-.39,2.82,2.82,0,0,1-1.6-2.6,2.86,2.86,0,0,1,1.54-2.58,3.46,3.46,0,0,1,1.62-.38,3.32,3.32,0,0,1,1.56.36,2.63,2.63,0,0,1,1.11,1,2.94,2.94,0,0,1,.41,1.59S128.31,113.55,128.29,113.87Zm-3.82-1.78a1.22,1.22,0,0,0-.39.72h2.35a1.18,1.18,0,0,0-.4-.72,1.12,1.12,0,0,0-.78-.27A1.16,1.16,0,0,0,124.47,112.09Z"/><rect class="cls-4" x="66.19" y="130.66" width="15.06" height="23.59"/><path d="M71.59,147.27a4,4,0,0,1-1.47-1.76,7.2,7.2,0,0,1,0-5.47,4,4,0,0,1,1.47-1.76,3.83,3.83,0,0,1,2.12-.6,3.89,3.89,0,0,1,2.13.6A4,4,0,0,1,77.32,140a7.2,7.2,0,0,1,0,5.47,4,4,0,0,1-1.48,1.76,3.89,3.89,0,0,1-2.13.6A3.83,3.83,0,0,1,71.59,147.27Zm3.8-1.88a5.91,5.91,0,0,0,0-5.23,1.94,1.94,0,0,0-1.68-.88,1.91,1.91,0,0,0-1.66.88,5.82,5.82,0,0,0,0,5.23,1.91,1.91,0,0,0,1.66.88A1.94,1.94,0,0,0,75.39,145.39Z"/><rect class="cls-4" x="85.48" y="130.66" width="15.06" height="23.59"/><path d="M90.88,147.27a4,4,0,0,1-1.47-1.76,7.2,7.2,0,0,1,0-5.47,4,4,0,0,1,1.47-1.76,3.83,3.83,0,0,1,2.12-.6,3.89,3.89,0,0,1,2.13.6A4,4,0,0,1,96.61,140a7.2,7.2,0,0,1,0,5.47,4,4,0,0,1-1.48,1.76,3.89,3.89,0,0,1-2.13.6A3.83,3.83,0,0,1,90.88,147.27Zm3.8-1.88a5.91,5.91,0,0,0,0-5.23,1.94,1.94,0,0,0-1.68-.88,1.91,1.91,0,0,0-1.66.88,5.82,5.82,0,0,0,0,5.23,1.91,1.91,0,0,0,1.66.88A1.94,1.94,0,0,0,94.68,145.39Z"/><rect class="cls-4" x="104.77" y="130.66" width="15.06" height="23.59"/><path d="M110.17,147.27a4,4,0,0,1-1.47-1.76,7.2,7.2,0,0,1,0-5.47,4,4,0,0,1,1.47-1.76,3.83,3.83,0,0,1,2.12-.6,3.89,3.89,0,0,1,2.13.6A4,4,0,0,1,115.9,140a7.2,7.2,0,0,1,0,5.47,4,4,0,0,1-1.48,1.76,3.89,3.89,0,0,1-2.13.6A3.83,3.83,0,0,1,110.17,147.27Zm3.8-1.88a5.91,5.91,0,0,0,0-5.23,1.94,1.94,0,0,0-1.68-.88,1.91,1.91,0,0,0-1.66.88,5.82,5.82,0,0,0,0,5.23,1.91,1.91,0,0,0,1.66.88A1.94,1.94,0,0,0,114,145.39Z"/><rect class="cls-4" x="124.06" y="130.66" width="15.06" height="23.59"/><path d="M129.46,147.27a4,4,0,0,1-1.47-1.76,7.2,7.2,0,0,1,0-5.47,4,4,0,0,1,1.47-1.76,3.83,3.83,0,0,1,2.12-.6,3.89,3.89,0,0,1,2.13.6,4,4,0,0,1,1.48,1.76,7.2,7.2,0,0,1,0,5.47,4,4,0,0,1-1.48,1.76,3.89,3.89,0,0,1-2.13.6A3.83,3.83,0,0,1,129.46,147.27Zm3.8-1.88a5.91,5.91,0,0,0,0-5.23,1.94,1.94,0,0,0-1.68-.88,1.91,1.91,0,0,0-1.66.88,5.82,5.82,0,0,0,0,5.23,1.91,1.91,0,0,0,1.66.88A1.94,1.94,0,0,0,133.26,145.39Z"/><circle class="cls-5" cx="102.65" cy="121.39" r="66.29"/><line class="cls-6" x1="63.85" y1="143.37" x2="141.46" y2="143.37"/><line class="cls-7" x1="73.91" y1="112.72" x2="131.54" y2="112.72"/></svg>