<svg id="Layer_1" data-name="Layer 1" xmlns="http://www.w3.org/2000/svg" viewBox="0 0 201.69 201.69"><defs><style>.cls-1{fill:#0b40c4;}.cls-2{fill:#ececec;}.cls-3{fill:#00b717;}.cls-4{fill:#f6c799;}.cls-5{fill:#6f6f6d;}.cls-6{fill:#f4a19a;}.cls-7{fill:#dae5ef;}.cls-8{fill:#fff;}.cls-9{fill:#3e4347;}.cls-10{fill:#bc6464;}</style></defs><circle class="cls-1" cx="100.85" cy="100.85" r="100.85"/><path class="cls-2" d="M156.82,80.6a23.24,23.24,0,1,1-46.48,0c0-24.2,23.24-45,23.24-45S156.82,57.93,156.82,80.6Z"/><path class="cls-3" d="M45,94.49v30.05h8v10.4H23v-10.4h8v-15h-6.5l8.25-15.05Z"/><path class="cls-3" d="M75.32,93.69c13.55,0,19.1,8.25,19.1,21s-5.55,20.95-19.1,20.95-19.15-8.2-19.15-20.95S61.77,93.69,75.32,93.69Zm0,31.65c3.5,0,5.9-1.75,5.9-10.65s-2.4-10.75-5.9-10.75-5.9,1.8-5.9,10.75S71.82,125.34,75.32,125.34Z"/><path class="cls-3" d="M115.7,93.69c13.55,0,19.1,8.25,19.1,21s-5.55,20.95-19.1,20.95-19.15-8.2-19.15-20.95S102.15,93.69,115.7,93.69Zm0,31.65c3.5,0,5.9-1.75,5.9-10.65s-2.4-10.75-5.9-10.75-5.9,1.8-5.9,10.75S112.2,125.34,115.7,125.34Z"/><path class="cls-3" d="M154.73,103.79c0,6.85-3.95,9-9.35,9s-9.35-2.2-9.35-9c0-6.2,3.95-9.05,9.35-9.05S154.73,97.59,154.73,103.79Zm13.5-10.3h9.3l-26.8,42.45h-9.3Zm-20.75,11V103c0-1.7-.5-2.45-2.1-2.45s-2.1.75-2.1,2.45v1.45c0,1.75.6,2.55,2.1,2.55S147.48,106.19,147.48,104.44Zm35.7,20.85c0,6.85-4,9-9.35,9s-9.35-2.2-9.35-9c0-6.2,4-9.05,9.35-9.05S183.18,119.09,183.18,125.29Zm-7.25.65v-1.45c0-1.7-.5-2.45-2.1-2.45s-2.1.75-2.1,2.45v1.45c0,1.75.6,2.55,2.1,2.55S175.93,127.69,175.93,125.94Z"/><path class="cls-4" d="M67.51,42.1a18.9,18.9,0,0,1-6.29-6.28c-1.06,11.12,3,13.82,5.24,13.87C69.52,49.76,71.92,44.47,67.51,42.1Z"/><path class="cls-4" d="M89.79,42.1a19,19,0,0,0,6.3-6.28c1.06,11.12-3,13.82-5.24,13.87C87.79,49.76,85.38,44.47,89.79,42.1Z"/><path class="cls-5" d="M110.4,43.54c-6-.2-10.88.76-13.82,2.84-1.85,3.14-2.79,8.54-2.65,15.24,6,.2,11.36-.14,13.82-2.84S110.54,50.24,110.4,43.54Z"/><path class="cls-6" d="M108.86,47.53c-4.19-.14-7.62.53-9.68,2-1.3,2.2-2,6-1.86,10.67,4.19.14,8-.1,9.68-2S109,52.22,108.86,47.53Z"/><path class="cls-5" d="M47,43.54c6-.2,10.88.76,13.82,2.84,1.85,3.14,2.79,8.54,2.65,15.24-6,.2-11.36-.14-13.82-2.84S46.87,50.24,47,43.54Z"/><path class="cls-6" d="M48.56,47.53c4.18-.14,7.62.53,9.67,2,1.3,2.2,2,6,1.86,10.67-4.18.14-8-.1-9.68-2S48.46,52.22,48.56,47.53Z"/><path class="cls-7" d="M100.9,74.21c0,14.94-22.19,23.24-22.19,23.24s-22.2-8.3-22.2-23.24c0-21.94,8.63-33.4,22.2-33.4S100.9,48.9,100.9,74.21Z"/><path class="cls-5" d="M92.84,45.7c-7.46,8-12.6,18.3-5.1,27.75,4.94,6.22,8.84,6.2,12.48,5.19a15,15,0,0,0,.68-4.43C100.9,59.45,98.65,50.58,92.84,45.7Z"/><path class="cls-5" d="M69.67,73.45c7.34-9.24,2.58-19.3-4.61-27.23-6.3,5.31-8.55,14.8-8.55,28a15,15,0,0,0,.68,4.43C60.83,79.65,64.74,79.67,69.67,73.45Z"/><path class="cls-8" d="M86.55,66.72s2.52,4.21,7.21,2.87,4.89-6.33,4.89-6.33-2.51-4.21-7.21-2.87S86.55,66.72,86.55,66.72Z"/><path class="cls-9" d="M92.6,60.89c1.94,0,3.51,1.84,3.51,4.1s-1.57,4.1-3.51,4.1-3.51-1.84-3.51-4.1S90.66,60.89,92.6,60.89Z"/><path class="cls-9" d="M86.55,66.72s4-6.24,10.3-3.74c3.91,1.55,5.37-1,5.37-1-2.13.33-3-.54-5.37-1.67C92.51,58.26,86.55,59.34,86.55,66.72Z"/><path class="cls-8" d="M70.86,66.72s-2.51,4.21-7.21,2.87-4.89-6.33-4.89-6.33,2.52-4.21,7.21-2.87S70.86,66.72,70.86,66.72Z"/><path class="cls-9" d="M64.81,60.89c1.94,0,3.51,1.84,3.51,4.1s-1.57,4.1-3.51,4.1S61.3,67.25,61.3,65,62.87,60.89,64.81,60.89Z"/><path class="cls-9" d="M70.86,66.72s-4-6.24-10.3-3.74c-3.91,1.55-5.37-1-5.37-1,2.14.33,3-.54,5.37-1.67C64.91,58.26,70.86,59.34,70.86,66.72Z"/><path class="cls-6" d="M60.51,84.71c0-8.61,4.27-4.25,18.2-4.25S96.9,76.1,96.9,84.71c0,12.2-8.56,14.56-18.19,14.56S60.51,96.91,60.51,84.71Z"/><path class="cls-10" d="M72.76,86.66c-1.25-3.56-3.61-5.55-5.29-4.45s-2,4.89-.78,8.45,3.62,5.56,5.3,4.46S74,90.23,72.76,86.66Z"/><path class="cls-10" d="M89.94,82.21c-1.67-1.1-4,.89-5.29,4.45s-.9,7.35.78,8.46,4-.89,5.29-4.45S91.62,83.32,89.94,82.21Z"/></svg>