<svg id="Layer_1" data-name="Layer 1" xmlns="http://www.w3.org/2000/svg" xmlns:xlink="http://www.w3.org/1999/xlink" viewBox="0 0 181.54 181.54"><defs><style>.cls-1,.cls-10,.cls-9{fill:none;}.cls-2{fill:#0b40c4;}.cls-3{clip-path:url(#clip-path);}.cls-4{fill:#9d7f67;}.cls-5{fill:#df7a97;}.cls-10,.cls-5,.cls-7,.cls-9{stroke:#000;}.cls-10,.cls-5,.cls-7{stroke-linecap:round;stroke-linejoin:round;}.cls-5,.cls-7{stroke-width:4.84px;}.cls-6,.cls-7{fill:#ececec;}.cls-8{fill:#d1beaf;}.cls-9{stroke-miterlimit:10;}.cls-10,.cls-9{stroke-width:6.45px;}</style><clipPath id="clip-path"><circle class="cls-1" cx="90.77" cy="90.77" r="90.77"/></clipPath></defs><circle class="cls-2" cx="90.77" cy="90.77" r="90.77"/><g class="cls-3"><polygon class="cls-4" points="119.04 128.59 74.26 126.01 115.43 159.99 119.04 128.59"/><path class="cls-5" d="M57.26,132.35l41,26.33L119,154.09l2.29-17.29c8.31,1.19,31.91,21.42,31.91,21.42L137,219.83c-30.25-8.3-74.14,3.86-74.14,3.86L17.52,153.11s25.21-11,28.77-16.6S57.26,132.35,57.26,132.35Z"/><path class="cls-6" d="M123.63,151.58l2,33.89,1,24.8s-2-4.93-5.35-5.27-8.58,2.46-8.58,2.46L93.48,161l29.65-10.11"/><path class="cls-7" d="M126.52,202.37s-.64-32.19-2.72-49.69"/><path class="cls-7" d="M97.71,167.69s26.05,5.73,26.05-12.15c0-15.2-3.19-20.32-3.19-20.32l-8.1,18.14L74.26,126l-6.34-10.14-8.26,3.67s-5.35,8.91.3,17.24,23.18,26.16,23.18,26.16-3.57,8,3.57,17.54,14,39.24,14,39.24,10.7-3.57,10.7-11.3-1.78-12.19.6-16.35,3.56-12.78.29-14.86-6.83-8-6.83-8"/><path class="cls-7" d="M35.9,86c4.1-7.59,15.63-2.43,7.22,7.89-8.94,11-20.91,3.13-20.91-6.28S35.1,73.31,35.1,73.31c8.72-34.5,35.55-45.31,51.58-46s23,7.66,23,7.66,17-4.71,29.62,30-70.85,55.21-70.85,55.21c-34-9.29-29.31-21.62-29.31-21.62"/><polygon class="cls-4" points="100.05 45.86 94.9 55.16 96.64 64.9 93.03 74.03 86.04 75.45 85.04 83.03 77.93 88.82 66.4 87.35 63.25 93.61 59.85 96.49 64.42 114.62 83 133.01 101.81 137.07 120.57 135.22 134.29 127.43 148.79 110.22 152.26 88.99 146.08 67.63 135.46 56.41 122.37 47.96 107.62 44.06 100.05 45.86"/><path class="cls-8" d="M107.34,65.93a2.53,2.53,0,0,1,1.17-.46,2.44,2.44,0,0,1,1.73,4.38,2.4,2.4,0,0,1-1.17.47,2.48,2.48,0,0,1-2.24-1A2.45,2.45,0,0,1,107.34,65.93Z"/><path class="cls-8" d="M127,80.15a2.45,2.45,0,0,1,2.52,3.39,2.43,2.43,0,0,1-2,1.45h0A2.44,2.44,0,0,1,125,81.6,2.47,2.47,0,0,1,127,80.15Z"/><path class="cls-8" d="M123.53,103.5a2.44,2.44,0,1,1-2.14,2.7A2.44,2.44,0,0,1,123.53,103.5Z"/><path class="cls-8" d="M83.09,97.49a2.46,2.46,0,0,1,1.25.19A2.41,2.41,0,0,1,85.64,99a2.44,2.44,0,0,1-4.54,1.79,2.4,2.4,0,0,1,0-1.86A2.46,2.46,0,0,1,83.09,97.49Z"/><path d="M57.24,96.76A48.4,48.4,0,1,0,99.8,43.16l-.44.06-.19,0a2.33,2.33,0,0,0-2,2.45,9.27,9.27,0,0,1-4.44,8.52,2.31,2.31,0,0,0-.52,3.52,9.29,9.29,0,0,1-5.88,15.42,7.55,7.55,0,0,1-.83,0A2.32,2.32,0,0,0,83.26,76a9.3,9.3,0,0,1-8,11.12A9.41,9.41,0,0,1,69.71,86a2.32,2.32,0,0,0-3.31,1.31,9.25,9.25,0,0,1-7.29,6.25,2.32,2.32,0,0,0-1.93,2.53l0,.19C57.21,96.47,57.23,96.61,57.24,96.76Zm4.8.88a13.85,13.85,0,0,0,7.76-6.52A13.93,13.93,0,0,0,88.09,77.56a13.92,13.92,0,0,0,9.06-20.89,13.86,13.86,0,0,0,4.6-9A43.75,43.75,0,1,1,62,97.64Z"/><path d="M103.12,101.45l18.66-2.15a4.44,4.44,0,0,0,3.62-5.1l-1.17-13.54a4.67,4.67,0,0,0-5.17-4.1L98.29,78.94a4.67,4.67,0,0,0-4.1,5.16l4.25,13.19A4.44,4.44,0,0,0,103.12,101.45Z"/><path d="M155.75,95.41,137.1,97.55a4.45,4.45,0,0,1-4.69-4.16l-1.92-13.45a4.66,4.66,0,0,1,4.1-5.16l20.77-2.39a4.67,4.67,0,0,1,5.17,4.1L159.38,90.3A4.45,4.45,0,0,1,155.75,95.41Z"/><path class="cls-9" d="M140,85.61s-6.22-3.53-12.11-2.85S115,91,115,91"/><polyline class="cls-10" points="113.92 85.87 74.79 90.36 71.65 103.62"/></g></svg>