<svg id="Layer_1" data-name="Layer 1" xmlns="http://www.w3.org/2000/svg" viewBox="0 0 185.56 185.56"><defs><style>.cls-1{fill:#ffb000;}.cls-2,.cls-5{fill:#fff;}.cls-2,.cls-3,.cls-5,.cls-6{stroke:#000;}.cls-2,.cls-5,.cls-6{stroke-miterlimit:10;}.cls-2{stroke-width:5px;}.cls-3,.cls-4,.cls-6{fill:none;stroke-linecap:round;}.cls-3,.cls-4{stroke-linejoin:round;}.cls-3{stroke-width:2.45px;}.cls-4{stroke:#fff;stroke-width:1.75px;}.cls-5,.cls-6{stroke-width:5.51px;}</style></defs><circle class="cls-1" cx="92.78" cy="92.78" r="92.78"/><polygon class="cls-2" points="157.04 94.09 130.42 94.09 124.46 103.06 118.72 94.09 88.31 94.09 88.31 49.84 157.04 49.84 157.04 94.09"/><circle cx="110.61" cy="73" r="2.45"/><circle cx="123.29" cy="73" r="2.45"/><circle cx="135.97" cy="73" r="2.45"/><polygon class="cls-2" points="102.27 78.04 75.64 78.04 69.68 87 63.94 78.04 37.24 78.04 37.24 33.78 102.27 33.78 102.27 78.04"/><polygon points="86.54 63.13 83.75 63.13 82.45 38.88 87.81 38.88 86.54 63.13"/><circle cx="85.13" cy="67.83" r="2.45"/><path d="M66.15,47.61a.37.37,0,0,0,.57-.31v-.13a4.42,4.42,0,1,0-8.84,0h0a.37.37,0,0,0,.56.32,7.31,7.31,0,0,1,7.71.12Z"/><polyline class="cls-3" points="59.6 40.88 62.09 43.36 64.53 40.91"/><ellipse cx="62.3" cy="58.85" rx="9.88" ry="11.12"/><polyline class="cls-3" points="50.41 48.14 50.41 50.8 54.57 54.03 54.57 58.85 49.97 58.85 55.22 58.85 55.22 62.94 50.41 66.83 50.41 69.56"/><polyline class="cls-3" points="74.19 48.14 74.19 50.8 70.03 54.03 70.03 58.85 74.63 58.85 69.38 58.85 69.38 62.94 74.19 66.83 74.19 69.56"/><path class="cls-4" d="M57.64,51.61a4.61,4.61,0,0,0,4.7,3.46c4,0,4.44-3.25,4.44-3.25"/><line class="cls-4" x1="62.34" y1="55.07" x2="62.34" y2="67.05"/><circle class="cls-5" cx="70.6" cy="149.38" r="16.8"/><circle class="cls-5" cx="93.09" cy="136.31" r="31.98"/><line class="cls-6" x1="102.61" y1="135.78" x2="77.58" y2="110.75"/></svg>