<svg id="Layer_1" data-name="Layer 1" xmlns="http://www.w3.org/2000/svg" viewBox="0 0 401.71 213.43"><defs><style>.cls-1{fill:#ffb000;}.cls-2{font-size:12px;font-family:MyriadPro-Regular, Myriad Pro;}</style></defs><rect class="cls-1" width="401.71" height="213.43"/><path d="M52.79,115.48H49.62l-3,7.08H36.57l3-7.08H34.11l3.22-7.79H42.8l2-4.75H39.41l3.22-7.79H48l2.88-6.86H61l-2.88,6.86h3.18l2.88-6.86H74.23l-2.88,6.86h5l-3.22,7.79h-5l-2,4.75h4.91l-3.22,7.79H62.88l-3,7.08H49.83Zm2-12.54-1.95,4.75h3.18L58,102.94Z"/><path d="M116.93,113.87l-2,9.53H72.41l2-9.53Zm-8.26-26.3,9.23,20.58H102.65l-3.72-9.61-7.8,9.61H75.88l18-20.58Z"/><path d="M128,117.47h-8.39l2-9.53h28.55l-2,9.53h-7.88L139,123.4H126.72Zm-4.32-21.22c1.44-6.86,6.35-8.89,16.39-8.89s14,2,12.58,8.89l-.34,1.57c-1.44,6.86-6.35,8.9-16.39,8.9s-14-2-12.58-8.9Zm17.36.51c.56-2.63-.5-3-2.37-3s-3.09.33-3.64,3l-.08.55c-.6,2.63.46,3,2.37,3s3-.34,3.64-3Zm19.45,26.64H148.15l7.59-35.83H168Z"/><path d="M208.77,113.87l-2,9.53H164.26l2-9.53Zm-8.26-26.3,9.24,20.58H194.5l-3.73-9.61L183,108.15H167.73l18-20.58Z"/><path d="M243.13,115.48H240l-3,7.08H226.91l3-7.08h-5.43l3.22-7.79h5.47l2-4.75h-5.34L233,95.15h5.38l2.88-6.86h10.08l-2.88,6.86h3.18l2.88-6.86h10.08l-2.88,6.86h5l-3.22,7.79h-5l-1.95,4.75h4.91l-3.22,7.79h-5l-3,7.08H240.17Zm2-12.54-1.95,4.75h3.18l1.94-4.75Z"/><path d="M266.86,103.37c2.63-12.37,7.37-16.1,16.77-16.1,6.57,0,10.08,1.82,10.68,7.12h4.4l1.44-6.82h12.29l-7.59,35.83H292.57l1.53-7.28h-4.24c-2.88,5.63-7.24,7.58-14,7.58-9.4,0-12.54-3.73-9.91-16.1Zm15.25,0c1.65-7.71,1.52-8.05-.17-8.05s-2,.34-3.64,8.05l-.89,4.23c-1.66,7.71-1.49,8.05.21,8.05s1.95-.34,3.6-8.05Zm11.48-.09,0,.09-.81,3.85H296l.85-3.94Z"/><path d="M329.89,123.79c-19.27,0-20.79-1.27-19.18-8.86s3.68-8.85,23-8.85,20.76,1.27,19.15,8.85S349.17,123.79,329.89,123.79Zm-6.77-18.6c-9.62,0-9.58-3.18-8.52-8.22l.09-.25h-1.44l1.73-8.3h5.6L321,86.3h12.29l-.47,2.12h5.51l-1.74,8.3h-1.44l-.09.25C334.05,102,332.82,105.19,323.12,105.19ZM332,113.7c-8.6,0-8.81.22-9,1.23s-.08,1.23,8.51,1.23,8.81-.21,9-1.23S340.61,113.7,332,113.7ZM325.4,94.39c-.93,0-1.1.63-1.44,2.16s-.42,2.24.51,2.24,1.15-.67,1.44-2.24S326.34,94.39,325.4,94.39ZM355,104.77h-8.89l.88-4.11h-1.27l-.89,4.11h-8.89l3.64-17.2h8.9l-1,4.62h1.27l1-4.62h8.89Z"/><path d="M86.07,166.32H82.89l-3,7.07H69.85l3-7.07H67.39l3.22-7.79h5.46l2-4.75H72.69L75.9,146h5.38l2.88-6.86H94.25L91.37,146h3.17l2.88-6.86H107.5L104.62,146h5l-3.22,7.79h-5l-2,4.75h4.92l-3.22,7.79h-5l-3,7.07H83.11Zm2-12.54-1.94,4.75h3.17l2-4.75Z"/><path d="M137.33,166.83H107.25l2-9.53h42.36l-3.6,16.94H135.76Zm-24.06-28.42h9.53l-.47,2.37h3l.46-2.37h9.54l-3.65,17.19h-22Zm7.2,11.05h3l.55-2.67h-3ZM152,155.6h-8.89l.89-4.11h-1.27l-.89,4.11h-8.9l3.65-17.19h8.89l-1,4.61h1.27l1-4.61h8.9Z"/><path d="M165.88,164.71h30.25l-2,9.53H151.61L154.83,159h12.28ZM167,157.3H154.36l11-18.89h15.67L184,157.3H171.26l-.8-6.23ZM196.09,163H183.8L189,138.41H201.3Z"/><path d="M218.75,174.45c-18.42,0-20-1-18.72-7.16s3.35-7.2,21.77-7.2,20,1,18.64,7.2S237.18,174.45,218.75,174.45Zm24.15-15.63H201.22l1.27-6h41.68Zm-3.09-13.43,5.25,6.1H229.81l-4.91-5.93-7.46,5.93H202.19l7.8-6.1H204.9l1.48-7h40l-1.48,7Zm-19.32,20.89c-8.6,0-8,.17-8.17,1s-.85,1,7.75,1,7.92-.17,8.09-1S229.09,166.28,220.49,166.28Z"/><path d="M264.42,174.62c-19.27,0-20.8-1.27-19.19-8.85s3.69-8.85,23-8.85,20.76,1.27,19.15,8.85S283.69,174.62,264.42,174.62Zm13.68-33.93h2.29l.47-2.28h12.28L289.5,155.6H277.21l.47-2.16h-2.29l-.46,2.16H247.39L251,138.41h27.53Zm-11.56,23.85c-8.6,0-8.81.21-9,1.23S257.43,167,266,167s8.81-.21,9-1.23S275.14,164.54,266.54,164.54Zm-5.38-15.8h3l.72-3.47h-3Zm15.42-.8h2.29l.33-1.74h-2.28Z"/><path d="M319,148h5.72l2-9.57h12.28l-7.58,35.83H319.2l3.55-16.73h-4.27l-1,16.73H305.77l2.12-22-7.2,22H289l13-35.83h17.62Z"/><path d="M143.6,36.86a3,3,0,0,1-1.23-.23,2.51,2.51,0,0,1-.92-.63,2.78,2.78,0,0,1-.57-.93,3.18,3.18,0,0,1-.19-1.12,2.69,2.69,0,0,1,.16-.91,4.13,4.13,0,0,1,.36-.82l2.16-3.83h.85l-1.79,3.22a1.86,1.86,0,0,1,.51-.25,2.25,2.25,0,0,1,.66-.1,3,3,0,0,1,1.19.22,2.53,2.53,0,0,1,.92.6,2.73,2.73,0,0,1,.6.9,2.91,2.91,0,0,1,0,2.17,2.65,2.65,0,0,1-1.52,1.49A3,3,0,0,1,143.6,36.86Zm-2.12-2.8a2,2,0,0,0,.16.81A2.07,2.07,0,0,0,142.75,36a2,2,0,0,0,.85.17,2.21,2.21,0,0,0,.87-.16,1.88,1.88,0,0,0,.67-.45,2,2,0,0,0,.43-.67,2.28,2.28,0,0,0,0-1.68,2,2,0,0,0-.43-.67,1.88,1.88,0,0,0-.67-.45,2.45,2.45,0,0,0-1.74,0,1.91,1.91,0,0,0-.67.44,2.09,2.09,0,0,0-.43.67A2.34,2.34,0,0,0,141.48,34.06Z"/><path d="M151.2,32.17v1.39h-.85V32.18l-3,0v-.68l7.38-.09v.66Zm-.27-4.7a4.12,4.12,0,0,1,1.09.13,2.65,2.65,0,0,1,.87.36,1.86,1.86,0,0,1,.58.57,1.36,1.36,0,0,1,0,1.45,1.86,1.86,0,0,1-.58.57,3.16,3.16,0,0,1-.87.36,4.61,4.61,0,0,1-1.09.12,4.75,4.75,0,0,1-1.1-.12,3.23,3.23,0,0,1-.86-.36,1.86,1.86,0,0,1-.58-.57,1.36,1.36,0,0,1,0-1.45A1.86,1.86,0,0,1,149,28a2.68,2.68,0,0,1,.86-.36A4.25,4.25,0,0,1,150.93,27.47Zm-2.19,10V35.35h6.63v-.71h-6.63V34h7.47v2h-6.63v.76h6.85v.69Zm2.19-7.12a3.67,3.67,0,0,0,.78-.08,2.42,2.42,0,0,0,.61-.23,1.29,1.29,0,0,0,.39-.34.78.78,0,0,0,.13-.44.76.76,0,0,0-.13-.44,1.45,1.45,0,0,0-.39-.34,2.09,2.09,0,0,0-.61-.23,3.42,3.42,0,0,0-1.56,0,2,2,0,0,0-.61.23,1.2,1.2,0,0,0-.39.34.76.76,0,0,0-.13.44.78.78,0,0,0,.13.44,1.09,1.09,0,0,0,.39.34,2.28,2.28,0,0,0,.61.23A3.67,3.67,0,0,0,150.93,30.34Zm4.47,3.22v-.31h-2.62v-.66h2.62V27.71h.83v5.85Z"/><path d="M162,37.52V34.31h-4.39v-.72h9.64v.72h-4.39v3.21Zm4.15-9.61V32.4h-7.45V27.91h.84v1.48h5.77V27.91Zm-.84,3.76V30.11h-5.77v1.56Z"/><path d="M173.42,32.22h-3.88V35.1l5.23-.27v.72l-6.07.35V28.06h5v.73h-4.15V31.5h3.88Zm2.5,5.3V32h-1.87v-.75h1.87V27.71h.84v9.81Z"/><path d="M182,30.21v-.73h5.43v.73Zm5.18,3.34a3.22,3.22,0,0,1-.17,1,2.69,2.69,0,0,1-.49.84,2.17,2.17,0,0,1-.76.58,2.28,2.28,0,0,1-1,.22,2.33,2.33,0,0,1-1-.22,2.17,2.17,0,0,1-.76-.58,2.49,2.49,0,0,1-.48-.84,3.22,3.22,0,0,1-.17-1,3.12,3.12,0,0,1,.17-1,2.64,2.64,0,0,1,.48-.85,2.27,2.27,0,0,1,.76-.57,2.19,2.19,0,0,1,1-.22,2.15,2.15,0,0,1,1,.22,2.27,2.27,0,0,1,.76.57,2.86,2.86,0,0,1,.49.85A3.12,3.12,0,0,1,187.21,33.55Zm-.83,0a2.55,2.55,0,0,0-.1-.74,1.86,1.86,0,0,0-.31-.63,1.33,1.33,0,0,0-.49-.42,1.51,1.51,0,0,0-.68-.15,1.45,1.45,0,0,0-.68.15,1.36,1.36,0,0,0-.5.42,2,2,0,0,0-.3.63,2.58,2.58,0,0,0,0,1.49,2,2,0,0,0,.3.62,1.49,1.49,0,0,0,.5.43,1.45,1.45,0,0,0,.68.15,1.51,1.51,0,0,0,.68-.15,1.45,1.45,0,0,0,.49-.43,1.81,1.81,0,0,0,.31-.62A2.57,2.57,0,0,0,186.38,33.55Zm-3.09-5v-.72h3v.72Zm4.84,8.68V27.82H189v3.91h1.41v-4h.84v9.8h-.84v-5H189v4.77Z"/><path d="M196.11,27.85a2.92,2.92,0,0,1,1.2.23,3.05,3.05,0,0,1,.94.61,2.72,2.72,0,0,1,.61.89,2.66,2.66,0,0,1,.22,1,2.7,2.7,0,0,1-.83,1.92,3,3,0,0,1-.95.62,2.81,2.81,0,0,1-.73.21v1.89l3.46,0v.72l-7.5.11V35.3l3.18,0v-1.9a2.61,2.61,0,0,1-.81-.21,3.08,3.08,0,0,1-.94-.62,2.64,2.64,0,0,1-.82-1.92,2.65,2.65,0,0,1,.21-1,2.72,2.72,0,0,1,.61-.89,3.05,3.05,0,0,1,.94-.61A3,3,0,0,1,196.11,27.85Zm0,4.81a2.13,2.13,0,0,0,.88-.17,2.08,2.08,0,0,0,.67-.45,1.93,1.93,0,0,0,.43-.66,2,2,0,0,0,.15-.76,2,2,0,0,0-.15-.77,2,2,0,0,0-.43-.65,2.1,2.1,0,0,0-.67-.46,2.3,2.3,0,0,0-.88-.17,2.23,2.23,0,0,0-.88.17,2,2,0,0,0-.68.46,2,2,0,0,0-.43.65,2,2,0,0,0-.15.77,2,2,0,0,0,.15.76,1.93,1.93,0,0,0,.43.66,2,2,0,0,0,.68.45A2.06,2.06,0,0,0,196.11,32.66Zm4.36,4.86V27.71h.84v9.81Z"/><path d="M209.82,30.31v2.46l3.68,0v.7l-7.27.11v-.72l2.73,0V30.31Zm1.62,1.6c.06-.24.12-.51.17-.8s.09-.58.12-.87.05-.57.06-.84,0-.52,0-.74h-5V28h5.89q0,.54,0,1.08c0,.37,0,.73-.07,1.07s-.08.67-.13,1a6.57,6.57,0,0,1-.18.83Zm-3.92,5.43v-2.9h.84v2.17h6.81v.73Zm6.5-2.2V27.71h.84v3h1.3v.75h-1.3v3.71Z"/><path d="M220.21,30v2.08l3.67-.05v.69l-7.27.11V32.1l2.74,0V30Zm1.61,1.3a11.93,11.93,0,0,0,.28-1.37,7.77,7.77,0,0,0,.1-1.27h-5V28h5.89a12.31,12.31,0,0,1-.11,1.83,13.73,13.73,0,0,1-.29,1.5Zm.2,2.2a5.06,5.06,0,0,1,1.26.15,3.21,3.21,0,0,1,1,.45,2.23,2.23,0,0,1,.67.7,1.84,1.84,0,0,1,.24.93,1.81,1.81,0,0,1-.24.93,2.23,2.23,0,0,1-.67.7,3.21,3.21,0,0,1-1,.45,5.06,5.06,0,0,1-1.26.15,5,5,0,0,1-1.25-.15,3.16,3.16,0,0,1-1-.45,2.35,2.35,0,0,1-.67-.7,1.81,1.81,0,0,1-.24-.93,1.84,1.84,0,0,1,.24-.93,2.35,2.35,0,0,1,.67-.7,3.16,3.16,0,0,1,1-.45A5,5,0,0,1,222,33.48Zm0,3.76a3.8,3.8,0,0,0,.92-.11,2.61,2.61,0,0,0,.74-.3,1.54,1.54,0,0,0,.5-.48,1.23,1.23,0,0,0,0-1.28,1.54,1.54,0,0,0-.5-.48,2.35,2.35,0,0,0-.74-.3,3.9,3.9,0,0,0-1.84,0,2.35,2.35,0,0,0-.74.3,1.54,1.54,0,0,0-.5.48,1.23,1.23,0,0,0,0,1.28,1.54,1.54,0,0,0,.5.48,2.61,2.61,0,0,0,.74.3A3.8,3.8,0,0,0,222,37.24Zm2.39-3.68V27.71h.83v2.42h1.3v.75h-1.3v2.68Z"/><path d="M227.65,28.08h4.14a5.51,5.51,0,0,1-.35,1.88,5.37,5.37,0,0,1-.93,1.55,5.81,5.81,0,0,1-1.37,1.19,6.43,6.43,0,0,1-1.67.75l-.44-.63a6.42,6.42,0,0,0,1.57-.68,5.27,5.27,0,0,0,1.15-1,4.68,4.68,0,0,0,.76-1.15,5.06,5.06,0,0,0,.38-1.22h-3.24Zm7.61,9.5V34.83H228.4V34.1h7.7v3.48Zm-2.37-4V27.8h.82v2.39h1.58V27.71h.83v5.84h-.83V30.91h-1.58v2.64Z"/><path d="M246.73,28.05V32.6H241.5V28.05Zm3,9.47a6.27,6.27,0,0,1-1.07-.28,7,7,0,0,1-1.06-.44,7.31,7.31,0,0,1-1-.58,5.89,5.89,0,0,1-.7-.59,5.13,5.13,0,0,1-.94.78,7.17,7.17,0,0,1-1.37.73,8.83,8.83,0,0,1-1.39.44l-.52-.65a7.73,7.73,0,0,0,1.41-.38,6.5,6.5,0,0,0,1.24-.61,4.32,4.32,0,0,0,.94-.79,2,2,0,0,0,.41-.67h-3.46v-.71h7.37v.71h-3a2.7,2.7,0,0,1-.29.62,4.41,4.41,0,0,0,.6.5,6.3,6.3,0,0,0,1,.54,8.8,8.8,0,0,0,1.09.42,8.28,8.28,0,0,0,1.17.28Zm-3.87-8.74h-3.55v3.09h3.55Zm2.84,4.44V27.71h.83V30h1.36v.75h-1.36v2.5Z"/><path d="M254.82,28.18a3.14,3.14,0,0,1,1.23.24,2.94,2.94,0,0,1,1,.67,3.13,3.13,0,0,1,.66,1.05,3.78,3.78,0,0,1,.24,1.36,3.7,3.7,0,0,1-.24,1.36,3.13,3.13,0,0,1-.66,1,3,3,0,0,1-1,.68,3.14,3.14,0,0,1-1.23.24,3.05,3.05,0,0,1-1.22-.24,3,3,0,0,1-1-.68,2.84,2.84,0,0,1-.66-1,3.7,3.7,0,0,1-.24-1.36,3.78,3.78,0,0,1,.24-1.36,2.84,2.84,0,0,1,.66-1.05,2.94,2.94,0,0,1,1-.67A3.05,3.05,0,0,1,254.82,28.18Zm0,.74a2.27,2.27,0,0,0-.91.18,2,2,0,0,0-.7.51,2.3,2.3,0,0,0-.47.81,3,3,0,0,0-.17,1.07,3.27,3.27,0,0,0,.16,1.06,2.25,2.25,0,0,0,.45.82,2,2,0,0,0,.71.52,2.4,2.4,0,0,0,1.87,0,2,2,0,0,0,.71-.52,2.59,2.59,0,0,0,.45-.82,3.57,3.57,0,0,0,.16-1.06,3.2,3.2,0,0,0-.17-1.07,2.47,2.47,0,0,0-.47-.81,2.11,2.11,0,0,0-.71-.51A2.27,2.27,0,0,0,254.82,28.92Zm4.72,8.6V27.71h.84v9.81Z"/><text class="cls-2" transform="translate(78.22 23.2)">sticker_</text></svg>