<svg id="Layer_1" data-name="Layer 1" xmlns="http://www.w3.org/2000/svg" viewBox="0 0 207.66 207.66"><defs><style>.cls-1{fill:#ececec;}.cls-2{fill:#98c6fc;}.cls-3{fill:#1e80cb;}.cls-4{fill:#ffb000;}</style></defs><rect class="cls-1" width="207.66" height="207.66"/><path class="cls-2" d="M75.14,108a50.59,50.59,0,1,0,56.57-43.79A50.59,50.59,0,0,0,75.14,108Zm65.61-5.55a13.8,13.8,0,1,0-15.43,11.94,13.8,13.8,0,1,1-15.43,11.94,13.8,13.8,0,1,0,15.43-11.94,13.8,13.8,0,1,1,15.43-11.94Z"/><path class="cls-3" d="M118.35,169.09a55.18,55.18,0,1,0-47.77-61.71A55.18,55.18,0,0,0,118.35,169.09ZM131.13,68.73a46,46,0,1,1-51.42,39.81A46,46,0,0,1,131.13,68.73Z"/><path class="cls-3" d="M122.42,137.16a9.21,9.21,0,0,1-8-10.29,4.6,4.6,0,0,0-9.12-1.16,18.41,18.41,0,0,0,11.44,19.34l-.66,5.21a4.6,4.6,0,1,0,9.12,1.16l.67-5.21a18.35,18.35,0,0,0,0-36.42,9.2,9.2,0,1,1,10.29-8,4.6,4.6,0,1,0,9.12,1.16,18.39,18.39,0,0,0-11.44-19.34l.66-5.21a4.6,4.6,0,1,0-9.12-1.16l-.67,5.2a18.36,18.36,0,0,0,0,36.43,9.2,9.2,0,0,1-2.32,18.25Z"/><rect class="cls-4" x="38.9" y="146.94" width="157.89" height="38.02" transform="matrix(0.98, -0.2, 0.2, 0.98, -30.33, 26.41)"/><path d="M81.88,164.5l-2,16.82-3.92.79-5.62-10-1.44,11.4-3.9.79-8.35-14.75,3.79-.76,5.78,10.38,1.5-11.84,3.38-.68L77,177.12l1.44-11.92Z"/><path d="M88.14,179a6.1,6.1,0,0,1-2.83-1.74A6.63,6.63,0,0,1,84,170.83a6.14,6.14,0,0,1,1.93-2.7,7.44,7.44,0,0,1,3.28-1.49,7.33,7.33,0,0,1,3.59.11,6.11,6.11,0,0,1,2.81,1.75,6.6,6.6,0,0,1,1.3,6.45A6.06,6.06,0,0,1,95,177.64a7.25,7.25,0,0,1-3.26,1.49A7.38,7.38,0,0,1,88.14,179Zm5.06-4.13a4,4,0,0,0-1-4.9,3,3,0,0,0-2.41-.46,3,3,0,0,0-2,1.36,3.91,3.91,0,0,0,1,4.89,3.23,3.23,0,0,0,4.46-.89Z"/><path d="M103.38,164.27a6.64,6.64,0,0,1,2.38-1l.65,3.25-.8.12a3.25,3.25,0,0,0-2.19,1.32,3.44,3.44,0,0,0-.35,2.7l1.15,5.73-3.52.71L98.27,165l3.36-.67.32,1.6A4,4,0,0,1,103.38,164.27Z"/><path d="M118.46,173a3.6,3.6,0,0,1-1.15.82,7,7,0,0,1-1.56.52,4.86,4.86,0,0,1-3.57-.44,4.34,4.34,0,0,1-1.83-3l-1-5-1.87.37-.55-2.7,1.88-.38-.6-3,3.52-.71.59,3,3-.61.54,2.71-3,.6,1,4.94a1.7,1.7,0,0,0,.63,1.11,1.5,1.5,0,0,0,1.2.19,2.28,2.28,0,0,0,1.33-.74Z"/><path d="M129.38,160a5.5,5.5,0,0,1,2.2,3.74l1.39,7-3.52.7-1.28-6.4a3.26,3.26,0,0,0-1.07-2,2.35,2.35,0,0,0-2-.34,2.85,2.85,0,0,0-1.95,1.24,3.46,3.46,0,0,0-.3,2.61l1.2,6-3.51.7-3.36-16.73,3.52-.71,1.17,5.87a4.87,4.87,0,0,1,1.48-1.41,6.33,6.33,0,0,1,2.09-.81A5.12,5.12,0,0,1,129.38,160Z"/><path d="M132.79,153.3l3.52-.7,3.36,16.73-3.52.71Z"/><path d="M153.74,161.23l-9.18,1.84a2.87,2.87,0,0,0,1.53,1.55,3.93,3.93,0,0,0,2.43.19,4.53,4.53,0,0,0,1.62-.62,4.09,4.09,0,0,0,1.19-1.16l2.28,1.65a6.41,6.41,0,0,1-4.62,3,8.17,8.17,0,0,1-3.79-.07,5.91,5.91,0,0,1-2.88-1.74,6.19,6.19,0,0,1-1.5-3.05,6.32,6.32,0,0,1,.2-3.38,6.06,6.06,0,0,1,1.87-2.7,7,7,0,0,1,3.15-1.46,6.87,6.87,0,0,1,3.38.12,5.75,5.75,0,0,1,2.7,1.74,6.69,6.69,0,0,1,1.49,3.16S153.66,160.64,153.74,161.23Zm-9-2.25a2.92,2.92,0,0,0-.62,2.05l6-1.2a3,3,0,0,0-1.36-1.64,3.33,3.33,0,0,0-4,.79Z"/><path d="M158.26,165.41a8,8,0,0,1-2.49-.48l.66-2.76a7.28,7.28,0,0,0,2.13.45,8.14,8.14,0,0,0,2.33-.12q2.22-.45,2-1.56a.81.81,0,0,0-.76-.62,9.37,9.37,0,0,0-1.95,0,19.22,19.22,0,0,1-2.56,0,3.92,3.92,0,0,1-1.89-.7,3,3,0,0,1-1.14-2,3.42,3.42,0,0,1,.26-2.17,4.31,4.31,0,0,1,1.66-1.78,8.38,8.38,0,0,1,2.91-1.1,12.05,12.05,0,0,1,2.62-.23,7.3,7.3,0,0,1,2.26.35l-.67,2.74a7.23,7.23,0,0,0-3.67-.2,3.52,3.52,0,0,0-1.63.66.92.92,0,0,0-.4.92.81.81,0,0,0,.76.67,11.2,11.2,0,0,0,2,0,22.25,22.25,0,0,1,2.54,0,3.63,3.63,0,0,1,1.85.7,2.94,2.94,0,0,1,1.12,1.93,3.22,3.22,0,0,1-.28,2.14,4.32,4.32,0,0,1-1.7,1.76,8.62,8.62,0,0,1-3,1.1A11.81,11.81,0,0,1,158.26,165.41Z"/><path d="M170.23,163a7.82,7.82,0,0,1-2.49-.47l.67-2.76a7.28,7.28,0,0,0,2.13.45,8.47,8.47,0,0,0,2.32-.12q2.23-.45,2-1.56a.8.8,0,0,0-.76-.62,9.34,9.34,0,0,0-2,0,19.25,19.25,0,0,1-2.56,0,4,4,0,0,1-1.89-.7,3,3,0,0,1-1.13-2,3.42,3.42,0,0,1,.25-2.17,4.34,4.34,0,0,1,1.67-1.78,8.38,8.38,0,0,1,2.91-1.1,12,12,0,0,1,2.61-.23,7.42,7.42,0,0,1,2.27.35l-.67,2.74a7.16,7.16,0,0,0-3.68-.2,3.74,3.74,0,0,0-1.63.65,1,1,0,0,0-.4.93.83.83,0,0,0,.77.67,11.05,11.05,0,0,0,2,0,20.32,20.32,0,0,1,2.55,0,3.78,3.78,0,0,1,1.85.69,3,3,0,0,1,1.11,1.94,3.28,3.28,0,0,1-.27,2.14,4.32,4.32,0,0,1-1.7,1.76,8.7,8.7,0,0,1-3,1.1A11.47,11.47,0,0,1,170.23,163Z"/><path d="M55.45,70.58H37.9l-3.1,9.76H19l20.18-56H54.46l20.18,56H58.55ZM51.16,57,46.67,42.9,42.19,57Z"/><path d="M102.55,35.78v16a19.12,19.12,0,0,0-3.3-.32q-7.65,0-7.65,9.44V80.34H76.69V36.58H90.87V41.3Q94.83,35.78,102.55,35.78Z"/><path d="M134.35,78.82c-2.25,1.55-5.3,2.32-9.17,2.32q-7.59,0-11.68-4.44t-4.09-13.32V52.18h-5V39h5V26.74h14.91V39h7.39v13.2h-7.39v11a5.05,5.05,0,0,0,.86,3.12,2.68,2.68,0,0,0,2.24,1.12,5.13,5.13,0,0,0,3.37-1.2Z"/><path d="M24,94.34H39.55v56H24Z"/><path d="M51.62,149.94a23.37,23.37,0,0,1-7.26-3.12l4.09-11.92a19.32,19.32,0,0,0,5.94,2.88,23.05,23.05,0,0,0,6.66,1,8.65,8.65,0,0,0,3.6-.52,1.67,1.67,0,0,0,1-1.56c0-.69-.43-1.17-1.28-1.44a29.23,29.23,0,0,0-4.19-.8,46.34,46.34,0,0,1-7.52-1.64A11.59,11.59,0,0,1,47.23,129q-2.34-2.88-2.34-8.24a14,14,0,0,1,2.11-7.6,14.64,14.64,0,0,1,6.3-5.36,23.26,23.26,0,0,1,10.06-2,35.23,35.23,0,0,1,8,.92,21.57,21.57,0,0,1,6.69,2.68L74,121.3a18.27,18.27,0,0,0-10.42-3.2q-4.87,0-4.88,2.08c0,.69.44,1.19,1.32,1.48a26.38,26.38,0,0,0,4.15.84,43.17,43.17,0,0,1,7.49,1.68,11.82,11.82,0,0,1,5.41,3.92q2.34,2.88,2.34,8.24a13.68,13.68,0,0,1-2.11,7.44A14.61,14.61,0,0,1,71,149.14a23.8,23.8,0,0,1-10.23,2A35.1,35.1,0,0,1,51.62,149.94Z"/></svg>