<svg id="Layer_1" data-name="Layer 1" xmlns="http://www.w3.org/2000/svg" viewBox="0 0 303.58 303.58"><defs><style>.cls-1{fill:#ececec;}.cls-2{fill:#0b40c4;}.cls-3{fill:#ffb000;}</style></defs><rect class="cls-1" width="303.58" height="303.58"/><path d="M222.05,212.13a7,7,0,0,0-9.45,3.06,74.66,74.66,0,0,1-129.89,6.2l10,7.15a7,7,0,1,0,8.16-11.43L70.52,195.42a7,7,0,0,0-11.08,5.08L56,237.91a7,7,0,1,0,14,1.27L71,229a88.66,88.66,0,0,0,154.16-7.4A7,7,0,0,0,222.05,212.13Z"/><rect class="cls-2" x="111.16" y="156.82" width="140.35" height="49.23" transform="translate(-4.55 4.67) rotate(-1.46)"/><path class="cls-1" d="M125.34,190.56a10.07,10.07,0,0,1-3.44-1.51l1.42-3.37a10,10,0,0,0,3,1.37,11.18,11.18,0,0,0,3.41.47,5.48,5.48,0,0,0,2.77-.64,1.67,1.67,0,0,0,.86-1.51,1.43,1.43,0,0,0-.56-1.12,4.05,4.05,0,0,0-1.38-.69c-.56-.16-1.32-.35-2.27-.54a29.83,29.83,0,0,1-3.61-1,5.71,5.71,0,0,1-2.43-1.6,4.57,4.57,0,0,1-1.08-3,5.38,5.38,0,0,1,.83-3,6.09,6.09,0,0,1,2.66-2.21,11.18,11.18,0,0,1,4.42-.91,14.83,14.83,0,0,1,3.59.35,10.41,10.41,0,0,1,3.09,1.18l-1.28,3.39a10.79,10.79,0,0,0-5.34-1.37,5,5,0,0,0-2.73.68,1.81,1.81,0,0,0-.84,1.6,1.54,1.54,0,0,0,1.06,1.44,15.9,15.9,0,0,0,3.15.86,31.82,31.82,0,0,1,3.61.95,6,6,0,0,1,2.43,1.58,4.39,4.39,0,0,1,1.07,3,5.19,5.19,0,0,1-.84,3,6.19,6.19,0,0,1-2.69,2.21,11.27,11.27,0,0,1-4.43.91A15.38,15.38,0,0,1,125.34,190.56Z"/><path class="cls-1" d="M151.41,176.89a6.19,6.19,0,0,1,2,4.86l.22,8.38-4,.1-.05-1.83c-.76,1.39-2.24,2.11-4.42,2.17a7,7,0,0,1-3-.5,4.39,4.39,0,0,1-1.93-1.54,4.06,4.06,0,0,1-.72-2.28A3.84,3.84,0,0,1,141,183a7.84,7.84,0,0,1,4.74-1.29l3.39-.09a2.74,2.74,0,0,0-.9-2.12,3.71,3.71,0,0,0-2.56-.69,7.26,7.26,0,0,0-2.3.43,6,6,0,0,0-1.9,1l-1.61-2.94a9.45,9.45,0,0,1,2.85-1.38,12.81,12.81,0,0,1,3.44-.55A7.66,7.66,0,0,1,151.41,176.89ZM148,187.12a2.76,2.76,0,0,0,1.17-1.52l0-1.5-2.92.07c-1.75,0-2.61.64-2.58,1.79a1.54,1.54,0,0,0,.67,1.28,2.89,2.89,0,0,0,1.78.43A3.69,3.69,0,0,0,148,187.12Z"/><path class="cls-1" d="M160.46,189.21a7.29,7.29,0,0,1-3-2.62,7.76,7.76,0,0,1-.19-7.81,7.24,7.24,0,0,1,2.85-2.77,9,9,0,0,1,4.2-1.07,8.28,8.28,0,0,1,4.08.86,5.72,5.72,0,0,1,2.59,2.71l-3.26,1.86a3.6,3.6,0,0,0-3.35-1.94,3.74,3.74,0,0,0-2.73,1.17,4.59,4.59,0,0,0,.15,6,3.71,3.71,0,0,0,2.78,1,3.57,3.57,0,0,0,3.26-2.1l3.35,1.72a5.84,5.84,0,0,1-2.46,2.79,8,8,0,0,1-4,1.09A9.05,9.05,0,0,1,160.46,189.21Z"/><path class="cls-1" d="M176.41,188.8a7.19,7.19,0,0,1-3-2.62,7.4,7.4,0,0,1,2.65-10.57,9,9,0,0,1,4.2-1.08,8.13,8.13,0,0,1,4.08.87,5.77,5.77,0,0,1,2.6,2.7L183.69,180a3.62,3.62,0,0,0-3.36-1.93,3.73,3.73,0,0,0-2.73,1.16,4,4,0,0,0-1,3,4,4,0,0,0,1.17,2.94,3.71,3.71,0,0,0,2.79,1,3.58,3.58,0,0,0,3.25-2.11l3.35,1.72a5.89,5.89,0,0,1-2.45,2.8,8.17,8.17,0,0,1-4,1.08A9,9,0,0,1,176.41,188.8Z"/><path class="cls-1" d="M200.52,175.64a6.23,6.23,0,0,1,2,4.86l.21,8.38-4,.11,0-1.83c-.77,1.38-2.24,2.1-4.43,2.16a7,7,0,0,1-2.95-.5,4.3,4.3,0,0,1-1.94-1.54,4.12,4.12,0,0,1-.71-2.27,3.82,3.82,0,0,1,1.46-3.27,7.83,7.83,0,0,1,4.73-1.29l3.39-.09a2.68,2.68,0,0,0-.9-2.12,3.71,3.71,0,0,0-2.56-.69,7.31,7.31,0,0,0-2.3.43,6.06,6.06,0,0,0-1.9,1l-1.6-2.93a9.07,9.07,0,0,1,2.84-1.39,12.89,12.89,0,0,1,3.45-.55A7.63,7.63,0,0,1,200.52,175.64Zm-3.37,10.23a2.79,2.79,0,0,0,1.16-1.52l0-1.5-2.93.07c-1.75.05-2.61.64-2.58,1.79a1.55,1.55,0,0,0,.68,1.28,2.86,2.86,0,0,0,1.77.43A3.75,3.75,0,0,0,197.15,185.87Z"/><path class="cls-1" d="M221.16,168.13l.52,20.27-4.07.11-.05-1.7a5.61,5.61,0,0,1-4.54,2,7.61,7.61,0,0,1-3.78-.83,6.66,6.66,0,0,1-2.7-2.59,8.75,8.75,0,0,1-.2-8,6.61,6.61,0,0,1,2.57-2.72,7.51,7.51,0,0,1,3.73-1,5.56,5.56,0,0,1,4.44,1.66l-.18-7.13Zm-4.84,16a4.66,4.66,0,0,0-.15-5.93,3.82,3.82,0,0,0-5.38.14,4.66,4.66,0,0,0,.15,5.93,3.62,3.62,0,0,0,2.73,1A3.55,3.55,0,0,0,216.32,184.15Z"/><path class="cls-1" d="M239.77,181.79l-11.12.28a3.46,3.46,0,0,0,1.48,2.13,4.67,4.67,0,0,0,2.8.72,5.52,5.52,0,0,0,2-.4,4.78,4.78,0,0,0,1.62-1.12l2.33,2.4a7.62,7.62,0,0,1-6,2.54,9.65,9.65,0,0,1-4.42-.86,7.16,7.16,0,0,1-3-2.62,7.87,7.87,0,0,1-.21-7.8,7.15,7.15,0,0,1,2.74-2.77,8.15,8.15,0,0,1,4-1.07,8.26,8.26,0,0,1,3.93.82,6.77,6.77,0,0,1,2.81,2.6,7.88,7.88,0,0,1,1.1,4C239.82,180.7,239.81,181.08,239.77,181.79Zm-10.09-4.47a3.49,3.49,0,0,0-1.15,2.27l7.24-.18a3.5,3.5,0,0,0-3.68-3A3.65,3.65,0,0,0,229.68,177.32Z"/><rect class="cls-3" x="27.43" y="106.57" width="222.24" height="50.81" transform="translate(-23.24 29.82) rotate(-11.34)"/><path d="M68.63,155.92,63.5,151l-.24,0-4.15.84,1.15,5.74-4.77,1-4.13-20.62,8.92-1.79a11.6,11.6,0,0,1,4.94,0,6.94,6.94,0,0,1,5.51,5.73,7.06,7.06,0,0,1-.31,4.18,7.16,7.16,0,0,1-2.62,3.17l6,5.7Zm-4.38-15.56a5.08,5.08,0,0,0-3.45-.27l-3.89.78,1.44,7.19,3.89-.78a5.07,5.07,0,0,0,3.08-1.6,3.81,3.81,0,0,0-1.07-5.32Z"/><path d="M90.92,144.56l-12,2.4a3.8,3.8,0,0,0,2,2,5.15,5.15,0,0,0,3.17.25,5.94,5.94,0,0,0,2.12-.81,5.33,5.33,0,0,0,1.55-1.52l3,2.16q-1.73,3-6,3.88a10.54,10.54,0,0,1-5-.1A7.77,7.77,0,0,1,76,150.58a8.7,8.7,0,0,1-1.7-8.41,7.93,7.93,0,0,1,2.45-3.52,9.1,9.1,0,0,1,4.1-1.91,9,9,0,0,1,4.42.16,7.42,7.42,0,0,1,3.53,2.27,8.73,8.73,0,0,1,2,4.13C90.77,143.36,90.82,143.78,90.92,144.56Zm-11.77-2.94a3.86,3.86,0,0,0-.82,2.67l7.81-1.56a3.88,3.88,0,0,0-1.78-2.14,4,4,0,0,0-2.77-.38A4,4,0,0,0,79.15,141.62Z"/><path d="M108.56,131.43l2.65,13.19q.87,4.37-1,6.94C109,153.27,107,154.42,104,155a17.08,17.08,0,0,1-4.47.31,9.84,9.84,0,0,1-3.74-.93L97,150.72a7.43,7.43,0,0,0,2.8.8,10.41,10.41,0,0,0,3.16-.12,5.09,5.09,0,0,0,3.3-1.78,4.36,4.36,0,0,0,.48-3.49l-.13-.67a6.58,6.58,0,0,1-4.61,3,8.69,8.69,0,0,1-4.19-.15,7.56,7.56,0,0,1-3.41-2.12,8.25,8.25,0,0,1-1.6-8,7.4,7.4,0,0,1,2.33-3.27,8.54,8.54,0,0,1,3.8-1.76,6.38,6.38,0,0,1,5.69,1.22l-.4-2Zm-3.64,11.38a3.75,3.75,0,0,0,.6-3.05,3.71,3.71,0,0,0-1.73-2.58,4.29,4.29,0,0,0-3.2-.47,4.35,4.35,0,0,0-2.79,1.67A4,4,0,0,0,98.92,144a4.39,4.39,0,0,0,3.22.47A4.31,4.31,0,0,0,104.92,142.81Z"/><path d="M119.52,129.6a8.51,8.51,0,0,1,3.1-1.24l.85,4.25-1,.14a4.32,4.32,0,0,0-2.87,1.73,4.52,4.52,0,0,0-.45,3.54l1.5,7.48-4.6.92-3.18-15.85,4.39-.88.42,2.09A5.24,5.24,0,0,1,119.52,129.6Z"/><path d="M142.54,134.2l-12,2.41a3.8,3.8,0,0,0,2,2,5.14,5.14,0,0,0,3.17.25,6.34,6.34,0,0,0,2.12-.81,5.33,5.33,0,0,0,1.55-1.52l3,2.16q-1.73,3-6,3.87a10.54,10.54,0,0,1-4.95-.09,7.85,7.85,0,0,1-3.76-2.26,8.64,8.64,0,0,1-1.7-8.41,7.8,7.8,0,0,1,2.45-3.52,9.59,9.59,0,0,1,8.51-1.76,7.55,7.55,0,0,1,3.54,2.28,8.77,8.77,0,0,1,1.94,4.13C142.4,133,142.45,133.43,142.54,134.2Zm-11.77-2.94a3.85,3.85,0,0,0-.81,2.68l7.81-1.56a3.91,3.91,0,0,0-1.78-2.15,4,4,0,0,0-2.77-.37A4.06,4.06,0,0,0,130.77,131.26Z"/><path d="M148.45,139.65a9.92,9.92,0,0,1-3.25-.62l.87-3.6a9.94,9.94,0,0,0,2.78.59,11.21,11.21,0,0,0,3-.16c1.94-.39,2.82-1.07,2.63-2a1,1,0,0,0-1-.82,12.28,12.28,0,0,0-2.55,0,22.49,22.49,0,0,1-3.34,0,5.07,5.07,0,0,1-2.47-.92,3.9,3.9,0,0,1-1.48-2.58,4.46,4.46,0,0,1,.33-2.84,5.81,5.81,0,0,1,2.17-2.32,11,11,0,0,1,3.8-1.43,15,15,0,0,1,3.42-.3,9.39,9.39,0,0,1,3,.46l-.88,3.58a9.28,9.28,0,0,0-4.8-.27,4.86,4.86,0,0,0-2.13.86,1.24,1.24,0,0,0-.52,1.21,1.07,1.07,0,0,0,1,.87,14,14,0,0,0,2.65.05,28.67,28.67,0,0,1,3.32,0,5,5,0,0,1,2.42.91,3.91,3.91,0,0,1,1.45,2.53,4.23,4.23,0,0,1-.36,2.8,5.71,5.71,0,0,1-2.22,2.3,12.06,12.06,0,0,1-3.89,1.44A15.91,15.91,0,0,1,148.45,139.65Z"/><path d="M164.08,136.52a10.6,10.6,0,0,1-3.25-.62l.87-3.61a9.75,9.75,0,0,0,2.79.59,10.82,10.82,0,0,0,3-.16c1.94-.39,2.82-1.07,2.63-2a1.06,1.06,0,0,0-1-.81,11.61,11.61,0,0,0-2.55,0,23.93,23.93,0,0,1-3.35,0,5.06,5.06,0,0,1-2.46-.91,3.92,3.92,0,0,1-1.48-2.58,4.39,4.39,0,0,1,.33-2.84,5.68,5.68,0,0,1,2.17-2.32,11,11,0,0,1,3.8-1.44,16.24,16.24,0,0,1,3.42-.3,9.68,9.68,0,0,1,3,.46l-.88,3.58a9.28,9.28,0,0,0-4.8-.26,4.87,4.87,0,0,0-2.13.85,1.25,1.25,0,0,0-.52,1.21,1.07,1.07,0,0,0,1,.87,14,14,0,0,0,2.65,0,28.19,28.19,0,0,1,3.31.06,4.82,4.82,0,0,1,2.42.91,3.86,3.86,0,0,1,1.46,2.52,4.22,4.22,0,0,1-.36,2.8,5.65,5.65,0,0,1-2.22,2.3,11.61,11.61,0,0,1-3.89,1.44A16,16,0,0,1,164.08,136.52Z"/><path d="M174.77,115.09a2.56,2.56,0,0,1-.74-3.65,3,3,0,0,1,1.92-1.15,3.06,3.06,0,0,1,2.2.29,2.3,2.3,0,0,1,1.15,1.61,2.53,2.53,0,0,1-.41,2.06,2.93,2.93,0,0,1-1.91,1.16A3,3,0,0,1,174.77,115.09Zm.35,3,4.6-.92L182.89,133l-4.59.92Z"/><path d="M190.05,130.73a7.86,7.86,0,0,1-3.69-2.28,8.16,8.16,0,0,1-2-4,8.06,8.06,0,0,1,.27-4.43,8,8,0,0,1,2.53-3.53,10.39,10.39,0,0,1,9-1.8A8.21,8.21,0,0,1,199,128.93a10.38,10.38,0,0,1-9,1.8Zm6.61-5.4a5.17,5.17,0,0,0-1.29-6.39,3.86,3.86,0,0,0-3.14-.61,3.91,3.91,0,0,0-2.67,1.77,5.11,5.11,0,0,0,1.28,6.39,4.23,4.23,0,0,0,5.82-1.16Z"/><path d="M218,111.08a7.15,7.15,0,0,1,2.86,4.88l1.82,9.07-4.59.92-1.68-8.36a4.18,4.18,0,0,0-1.39-2.65,3.07,3.07,0,0,0-2.57-.45,3.75,3.75,0,0,0-2.55,1.63,4.48,4.48,0,0,0-.39,3.4l1.57,7.84-4.6.92-3.17-15.84,4.38-.88.38,1.85a6.19,6.19,0,0,1,2-2,8,8,0,0,1,2.87-1.14A6.65,6.65,0,0,1,218,111.08Z"/><path d="M254.64,59.32A7,7,0,0,0,247,65.68l-.94,10.2a88.65,88.65,0,0,0-154.15,7.4,7,7,0,0,0,12.51,6.39,74.66,74.66,0,0,1,129.89-6.2l-10-7.15a7,7,0,0,0-8.16,11.43l30.37,21.69a7,7,0,0,0,11.07-5.08L261,67A7,7,0,0,0,254.64,59.32Z"/></svg>