<svg id="Layer_1" data-name="Layer 1" xmlns="http://www.w3.org/2000/svg" viewBox="0 0 145.27 184.83"><defs><style>.cls-1{fill:#ffb000;}.cls-2{fill:#501114;}.cls-3,.cls-4,.cls-5{fill:none;stroke-linecap:round;stroke-linejoin:round;}.cls-3{stroke:#501114;}.cls-3,.cls-4{stroke-width:3.44px;}.cls-4{stroke:#fff;}.cls-5{stroke:#d70009;stroke-width:9.17px;}.cls-6{fill:#0b40c4;}</style></defs><rect class="cls-1" width="145.27" height="184.83"/><path class="cls-2" d="M81.49,61.91a.87.87,0,0,0,1.32-.72c0-.11,0-.21,0-.32a10.34,10.34,0,1,0-20.68,0v0a.86.86,0,0,0,1.3.73,17.12,17.12,0,0,1,18,.29Z"/><polyline class="cls-3" points="66.17 46.16 71.97 51.96 77.69 46.24"/><ellipse class="cls-2" cx="72.48" cy="88.2" rx="23.12" ry="26.01"/><polyline class="cls-3" points="44.65 63.15 44.65 69.37 54.4 76.93 54.4 88.2 43.64 88.2 55.91 88.2 55.91 97.78 44.65 106.86 44.65 113.25"/><polyline class="cls-3" points="100.3 63.15 100.3 69.37 90.55 76.93 90.55 88.2 101.31 88.2 89.04 88.2 89.04 97.78 100.3 106.86 100.3 113.25"/><path class="cls-4" d="M61.58,71.26s1.7,8.09,11,8.09S83,71.76,83,71.76"/><line class="cls-4" x1="72.57" y1="79.35" x2="72.57" y2="107.38"/><path class="cls-5" d="M122.14,82.82a49.49,49.49,0,1,1-19.2-39.16A49.51,49.51,0,0,1,122.14,82.82Z"/><line class="cls-5" x1="38.83" y1="118.15" x2="102.94" y2="43.66"/><path d="M54,17.75c.49-2.35,1.14-3.21,3.83-3.21s3,.86,2.45,3.21l-.15.74c-.5,2.35-1.14,3.21-3.83,3.21s-3-.86-2.46-3.21Zm.48-3.5L55,11.79h1.58l.15-.72h3.48l-.15.72h1.56l-.52,2.46Zm2.83,3.66c.24-1.16.29-1.24.06-1.24s-.23.08-.47,1.24l-.11.5c-.25,1.17-.28,1.24-.06,1.24s.22-.07.47-1.24Zm7.89,3.79H62.65l.82-3.85h-.36l-.82,3.85H59.77l2.15-10.15h2.52l-.8,3.78H64l.8-3.78h2.52Z"/><path d="M79,17.29H74.88l-.08.39c3.57.07,3.86.48,3.54,2-.38,1.75-.94,2-6.16,2s-5.66-.27-5.29-2c.34-1.55.81-1.95,4.43-2l.08-.39H67.24l.35-1.66h11.8Zm-1-3.76,1.6,1.73H75.33l-1.4-1.68-2.11,1.68H67.51l2.33-1.73H68.27l.38-1.74h3.92l.15-.72H76.2l-.15.72H80l-.37,1.74Zm-5.36,5.88c-2.44,0-2.26.05-2.31.29s-.25.27,2.19.27,2.25,0,2.3-.27S75.11,19.41,72.68,19.41Z"/><path d="M73.7,32.3H65.54l.58-2.7H77.75l-1,4.8H73.25Zm-6.45-8h3.47l-.13.67h.84l.13-.67H75l-1,4.87h-7.8Zm2.81,3.13h.84l.16-.76h-.84Zm9.41-1.69-.54,2.52H78l-.19.91H74.37l1-4.87h3.48l-.3,1.44Z"/><path d="M79.13,29.6H91.05l-.65,3H82.32l-.09.36h8.21l-.29,1.41h-12l.66-3.11h8.08l.07-.34H78.84Zm8.79-4.7h.65l.13-.65h3.48l-1,4.87H87.67l.13-.61h-.65l-.13.61h-7.8l1-4.87h7.8Zm-4.8,2.28H84l.2-1h-.84ZM87.49,27h.64l.1-.49h-.65Z"/><path class="cls-6" d="M46.35,153.21H35.55L33,165.09H43.8l-1.41,6.75H22.89l5.37-25.38h19.5ZM57.57,156l-1.44,6.75H53.91L52,171.84h-8.7l5.37-25.38h8.7l-2,9.51Z"/><path class="cls-6" d="M58,159.63h8.7l-.36,1.71H78l.36-1.71h8.7l-2.58,12.21H55.41Zm21-6.69H76.41l1.86,5.7H69.72l-1.08-3.33-2.52,3.33H57.6l4.38-5.7H59.4l1.35-6.48H80.37ZM65.16,166.89h11.7l.27-1.29H65.43Zm26.19-16.83L90,156.36H87.78l-.48,2.28H78.6l2.58-12.18h8.7l-.75,3.6Z"/><path class="cls-6" d="M90.84,157.65c1.86-8.76,5.22-11.4,11.88-11.4s8.88,2.64,7,11.4l-.63,3c-1.86,8.76-5.22,11.4-11.88,11.4s-8.88-2.64-7-11.4Zm10.8,0c1.17-5.46,1.08-5.7-.12-5.7s-1.41.24-2.58,5.7l-.63,3c-1.17,5.46-1,5.7.15,5.7s1.38-.24,2.55-5.7Zm21-1.68-1.44,6.75H119L117,171.84h-8.7l5.37-25.38h8.7l-2,9.51Z"/></svg>