<svg id="Layer_1" data-name="Layer 1" xmlns="http://www.w3.org/2000/svg" viewBox="0 0 222.98 222.98"><defs><style>.cls-1{fill:#ffb000;}.cls-2{fill:#df7a97;}</style></defs><circle class="cls-1" cx="111.49" cy="111.49" r="111.49"/><path class="cls-2" d="M32.53,86.87h11v38.55H67.34v9H32.53Z"/><path class="cls-2" d="M108.06,119.11H80.44A8.59,8.59,0,0,0,84,124.47a11.71,11.71,0,0,0,6.92,2,14.16,14.16,0,0,0,5.06-.85,12.39,12.39,0,0,0,4.11-2.68l5.63,6.11q-5.16,5.89-15.07,5.9a23.8,23.8,0,0,1-10.93-2.41,17.66,17.66,0,0,1-7.33-6.68,19.65,19.65,0,0,1,0-19.38,17.92,17.92,0,0,1,7-6.72A21.63,21.63,0,0,1,99,99.63a16.84,16.84,0,0,1,6.82,6.62,19.74,19.74,0,0,1,2.48,10Q108.27,116.46,108.06,119.11ZM83.29,107.37a8.62,8.62,0,0,0-3,5.56h18a8.73,8.73,0,0,0-3-5.53,8.91,8.91,0,0,0-6-2.07A9.1,9.1,0,0,0,83.29,107.37Z"/><path class="cls-2" d="M142.07,101.36q4.55,4,4.54,12.18v20.84H136.7v-4.55q-3,5.08-11.13,5.09a17.43,17.43,0,0,1-7.29-1.42,10.94,10.94,0,0,1-4.72-3.94,10.32,10.32,0,0,1-1.63-5.7,9.51,9.51,0,0,1,3.84-8q3.83-2.92,11.84-2.92H136a6.77,6.77,0,0,0-2.11-5.33c-1.4-1.24-3.51-1.86-6.31-1.86a18.47,18.47,0,0,0-5.74.91,15.21,15.21,0,0,0-4.78,2.48l-3.8-7.4a23,23,0,0,1,7.16-3.26A32.42,32.42,0,0,1,129,97.32Q137.51,97.32,142.07,101.36Zm-9,25.18a6.91,6.91,0,0,0,3-3.7v-3.73h-7.27q-6.51,0-6.51,4.27a3.83,3.83,0,0,0,1.59,3.23,7.21,7.21,0,0,0,4.38,1.18A9.19,9.19,0,0,0,133,126.54Z"/><path class="cls-2" d="M187,99.66a16.87,16.87,0,0,1,6.55,6.59,21.76,21.76,0,0,1,0,19.75,16.91,16.91,0,0,1-6.55,6.58,18.61,18.61,0,0,1-9.27,2.34q-7,0-11-4.41v17H156.18V97.86h10.11v4.21q3.94-4.74,11.47-4.75A18.61,18.61,0,0,1,187,99.66Zm-4.41,23.82a11.68,11.68,0,0,0,0-14.72,9.5,9.5,0,0,0-13.37,0,11.65,11.65,0,0,0,0,14.72,9.5,9.5,0,0,0,13.37,0Z"/><path d="M131.08,83.86a20.54,20.54,0,1,0-20.54-20.54A20.56,20.56,0,0,0,131.08,83.86Zm0-30.52a10,10,0,1,1-10,10A10,10,0,0,1,131.08,53.34Z"/><path d="M175,93.16a5.28,5.28,0,0,0-7.46,0c-.13.12-14.19,11.33-56.06-6.57-18.11-7.74-32.67-8.47-43.28-2.17-12.95,7.69-14.54,22.8-14.6,23.44a5.26,5.26,0,0,0,4.72,5.74,4.89,4.89,0,0,0,.54,0,5.29,5.29,0,0,0,5.24-4.73c0-.11,1.22-10.56,9.57-15.45C81.13,89,92.77,90,107.35,96.25c19.78,8.45,34.33,11.07,44.77,11.07,15.34,0,21.79-5.65,22.85-6.69A5.29,5.29,0,0,0,175,93.16Z"/><path d="M107.94,109.33a5.28,5.28,0,0,0-7.45-.18c-25.25,24-63.73,60.45-66.49,62.72a5.28,5.28,0,0,0,6.4,8.4c2.4-1.8,45.25-42.46,63.55-59.84L129.39,147a2.74,2.74,0,0,1-2,4.63H92.58a5.28,5.28,0,1,0,0,10.56h34.83a13.3,13.3,0,0,0,9.6-22.49Z"/></svg>